solid OpenSCAD_Model
  facet normal -1 0 0
    outer loop
      vertex -7.5 5.3033 0
      vertex -7.5 -5.3033 0
      vertex -7.5 -5.3033 10.6066
    endloop
  endfacet
  facet normal 0 0.707107 0.707107
    outer loop
      vertex 7.5 -5.3033 10.6066
      vertex 0.067297 -0.695189 5.99849
      vertex -7.5 -5.3033 10.6066
    endloop
  endfacet
  facet normal 2.30424e-05 0.707125 0.707088
    outer loop
      vertex 7.5 -5.3033 10.6066
      vertex 0.201349 -0.683124 5.98642
      vertex 0.067297 -0.695189 5.99849
    endloop
  endfacet
  facet normal -1.25357e-05 0.707097 0.707116
    outer loop
      vertex 7.5 -5.3033 10.6066
      vertex 0.333781 -0.659091 5.96239
      vertex 0.201349 -0.683124 5.98642
    endloop
  endfacet
  facet normal 7.61497e-06 0.707113 0.707101
    outer loop
      vertex 7.5 -5.3033 10.6066
      vertex 0.463525 -0.623283 5.92658
      vertex 0.333781 -0.659091 5.96239
    endloop
  endfacet
  facet normal -7.28332e-06 0.707102 0.707112
    outer loop
      vertex 7.5 -5.3033 10.6066
      vertex 0.589537 -0.575991 5.87929
      vertex 0.463525 -0.623283 5.92658
    endloop
  endfacet
  facet normal 3.37974e-06 0.707109 0.707104
    outer loop
      vertex 7.5 -5.3033 10.6066
      vertex 0.710802 -0.517592 5.82089
      vertex 0.589537 -0.575991 5.87929
    endloop
  endfacet
  facet normal -1.00327e-05 0.7071 0.707114
    outer loop
      vertex 7.5 -5.3033 10.6066
      vertex 0.826345 -0.448559 5.75186
      vertex 0.710802 -0.517592 5.82089
    endloop
  endfacet
  facet normal -9.69393e-06 0.7071 0.707114
    outer loop
      vertex 7.5 -5.3033 10.6066
      vertex 0.935234 -0.369446 5.67275
      vertex 0.826345 -0.448559 5.75186
    endloop
  endfacet
  facet normal 1.63619e-05 0.707117 0.707096
    outer loop
      vertex 7.5 -5.3033 10.6066
      vertex 1.03659 -0.280891 5.58419
      vertex 0.935234 -0.369446 5.67275
    endloop
  endfacet
  facet normal -1.30245e-05 0.707098 0.707115
    outer loop
      vertex 7.5 -5.3033 10.6066
      vertex 1.12961 -0.183607 5.48691
      vertex 1.03659 -0.280891 5.58419
    endloop
  endfacet
  facet normal -4.553e-07 0.707106 0.707107
    outer loop
      vertex 7.5 -5.3033 10.6066
      vertex 1.21352 -0.0783768 5.38168
      vertex 1.12961 -0.183607 5.48691
    endloop
  endfacet
  facet normal 1.92162e-06 0.707108 0.707106
    outer loop
      vertex 7.5 -5.3033 10.6066
      vertex 1.28767 0.0339527 5.26935
      vertex 1.21352 -0.0783768 5.38168
    endloop
  endfacet
  facet normal -7.85169e-06 0.707102 0.707112
    outer loop
      vertex 7.5 -5.3033 10.6066
      vertex 1.35145 0.152475 5.15083
      vertex 1.28767 0.0339527 5.26935
    endloop
  endfacet
  facet normal 2.247e-05 0.707119 0.707094
    outer loop
      vertex 7.5 -5.3033 10.6066
      vertex 1.40435 0.276239 5.02706
      vertex 1.35145 0.152475 5.15083
    endloop
  endfacet
  facet normal 1.16022e-05 0.707113 0.7071
    outer loop
      vertex 7.5 -5.3033 10.6066
      vertex 1.44594 0.404246 4.89905
      vertex 1.40435 0.276239 5.02706
    endloop
  endfacet
  facet normal -2.33006e-05 0.707095 0.707119
    outer loop
      vertex 7.5 -5.3033 10.6066
      vertex 1.4678 0.5 4.8033
      vertex 1.44594 0.404246 4.89905
    endloop
  endfacet
  facet normal 0 0.707107 0.707107
    outer loop
      vertex 1.4678 0.5 4.8033
      vertex 1.40381 2.3033 3
      vertex -1.4678 0.5 4.8033
    endloop
  endfacet
  facet normal 0 0.707107 0.707107
    outer loop
      vertex 7.5 5.3033 0
      vertex 1.4678 0.5 4.8033
      vertex 7.5 -5.3033 10.6066
    endloop
  endfacet
  facet normal 0 0.707107 0.707107
    outer loop
      vertex 0.121135 2.69728 2.60602
      vertex 7.5 5.3033 0
      vertex -0.121135 2.69728 2.60602
    endloop
  endfacet
  facet normal 0 0.707107 0.707107
    outer loop
      vertex 0.36243 2.67556 2.62774
      vertex 7.5 5.3033 0
      vertex 0.121135 2.69728 2.60602
    endloop
  endfacet
  facet normal -1.987e-05 0.707134 0.70708
    outer loop
      vertex 0.600806 2.63231 2.671
      vertex 7.5 5.3033 0
      vertex 0.36243 2.67556 2.62774
    endloop
  endfacet
  facet normal 1.8103e-05 0.707085 0.707129
    outer loop
      vertex 0.834346 2.56785 2.73545
      vertex 7.5 5.3033 0
      vertex 0.600806 2.63231 2.671
    endloop
  endfacet
  facet normal 0 0.707107 0.707107
    outer loop
      vertex 1.06117 2.48272 2.82058
      vertex 7.5 5.3033 0
      vertex 0.834346 2.56785 2.73545
    endloop
  endfacet
  facet normal 6.68159e-16 0.707107 0.707107
    outer loop
      vertex 1.27944 2.37761 2.92569
      vertex 7.5 5.3033 0
      vertex 1.06117 2.48272 2.82058
    endloop
  endfacet
  facet normal -1.14034e-15 0.707107 0.707107
    outer loop
      vertex 1.40381 2.3033 3
      vertex 7.5 5.3033 0
      vertex 1.27944 2.37761 2.92569
    endloop
  endfacet
  facet normal 0 0.707107 0.707107
    outer loop
      vertex 1.4678 0.5 4.8033
      vertex 7.5 5.3033 0
      vertex 1.40381 2.3033 3
    endloop
  endfacet
  facet normal -0 0.707107 0.707107
    outer loop
      vertex -0.067297 -0.695189 5.99849
      vertex -7.5 -5.3033 10.6066
      vertex 0.067297 -0.695189 5.99849
    endloop
  endfacet
  facet normal -2.30424e-05 0.707125 0.707088
    outer loop
      vertex -0.201349 -0.683124 5.98642
      vertex -7.5 -5.3033 10.6066
      vertex -0.067297 -0.695189 5.99849
    endloop
  endfacet
  facet normal 1.25357e-05 0.707097 0.707116
    outer loop
      vertex -0.333781 -0.659091 5.96239
      vertex -7.5 -5.3033 10.6066
      vertex -0.201349 -0.683124 5.98642
    endloop
  endfacet
  facet normal -7.61497e-06 0.707113 0.707101
    outer loop
      vertex -0.463525 -0.623283 5.92658
      vertex -7.5 -5.3033 10.6066
      vertex -0.333781 -0.659091 5.96239
    endloop
  endfacet
  facet normal 7.28332e-06 0.707102 0.707112
    outer loop
      vertex -0.589537 -0.575991 5.87929
      vertex -7.5 -5.3033 10.6066
      vertex -0.463525 -0.623283 5.92658
    endloop
  endfacet
  facet normal -3.37974e-06 0.707109 0.707104
    outer loop
      vertex -0.710802 -0.517592 5.82089
      vertex -7.5 -5.3033 10.6066
      vertex -0.589537 -0.575991 5.87929
    endloop
  endfacet
  facet normal 1.00327e-05 0.7071 0.707114
    outer loop
      vertex -0.826345 -0.448559 5.75186
      vertex -7.5 -5.3033 10.6066
      vertex -0.710802 -0.517592 5.82089
    endloop
  endfacet
  facet normal 9.69393e-06 0.7071 0.707114
    outer loop
      vertex -0.935234 -0.369446 5.67275
      vertex -7.5 -5.3033 10.6066
      vertex -0.826345 -0.448559 5.75186
    endloop
  endfacet
  facet normal -1.63619e-05 0.707117 0.707096
    outer loop
      vertex -1.03659 -0.280891 5.58419
      vertex -7.5 -5.3033 10.6066
      vertex -0.935234 -0.369446 5.67275
    endloop
  endfacet
  facet normal 1.30245e-05 0.707098 0.707115
    outer loop
      vertex -1.12961 -0.183607 5.48691
      vertex -7.5 -5.3033 10.6066
      vertex -1.03659 -0.280891 5.58419
    endloop
  endfacet
  facet normal 4.553e-07 0.707106 0.707107
    outer loop
      vertex -1.21352 -0.0783768 5.38168
      vertex -7.5 -5.3033 10.6066
      vertex -1.12961 -0.183607 5.48691
    endloop
  endfacet
  facet normal -1.92162e-06 0.707108 0.707106
    outer loop
      vertex -1.28767 0.0339527 5.26935
      vertex -7.5 -5.3033 10.6066
      vertex -1.21352 -0.0783768 5.38168
    endloop
  endfacet
  facet normal 7.85169e-06 0.707102 0.707112
    outer loop
      vertex -1.35145 0.152475 5.15083
      vertex -7.5 -5.3033 10.6066
      vertex -1.28767 0.0339527 5.26935
    endloop
  endfacet
  facet normal -2.247e-05 0.707119 0.707094
    outer loop
      vertex -1.40435 0.276239 5.02706
      vertex -7.5 -5.3033 10.6066
      vertex -1.35145 0.152475 5.15083
    endloop
  endfacet
  facet normal -1.16022e-05 0.707113 0.7071
    outer loop
      vertex -1.44594 0.404246 4.89905
      vertex -7.5 -5.3033 10.6066
      vertex -1.40435 0.276239 5.02706
    endloop
  endfacet
  facet normal 2.33006e-05 0.707095 0.707119
    outer loop
      vertex -1.4678 0.5 4.8033
      vertex -7.5 -5.3033 10.6066
      vertex -1.44594 0.404246 4.89905
    endloop
  endfacet
  facet normal -0 0.707107 0.707107
    outer loop
      vertex -1.40381 2.3033 3
      vertex -1.4678 0.5 4.8033
      vertex 1.40381 2.3033 3
    endloop
  endfacet
  facet normal 0 0.707107 0.707107
    outer loop
      vertex -7.5 5.3033 0
      vertex -1.4678 0.5 4.8033
      vertex -1.40381 2.3033 3
    endloop
  endfacet
  facet normal -0 0.707107 0.707107
    outer loop
      vertex -7.5 5.3033 0
      vertex -0.121135 2.69728 2.60602
      vertex 7.5 5.3033 0
    endloop
  endfacet
  facet normal 0 0.707107 0.707107
    outer loop
      vertex -0.121135 2.69728 2.60602
      vertex -7.5 5.3033 0
      vertex -0.36243 2.67556 2.62774
    endloop
  endfacet
  facet normal 1.987e-05 0.707134 0.70708
    outer loop
      vertex -0.36243 2.67556 2.62774
      vertex -7.5 5.3033 0
      vertex -0.600806 2.63231 2.671
    endloop
  endfacet
  facet normal 0 0.707107 0.707107
    outer loop
      vertex -1.4678 0.5 4.8033
      vertex -7.5 5.3033 0
      vertex -7.5 -5.3033 10.6066
    endloop
  endfacet
  facet normal 1.14034e-15 0.707107 0.707107
    outer loop
      vertex -1.27944 2.37761 2.92569
      vertex -7.5 5.3033 0
      vertex -1.40381 2.3033 3
    endloop
  endfacet
  facet normal -6.68159e-16 0.707107 0.707107
    outer loop
      vertex -1.06117 2.48272 2.82058
      vertex -7.5 5.3033 0
      vertex -1.27944 2.37761 2.92569
    endloop
  endfacet
  facet normal 0 0.707107 0.707107
    outer loop
      vertex -0.834346 2.56785 2.73545
      vertex -7.5 5.3033 0
      vertex -1.06117 2.48272 2.82058
    endloop
  endfacet
  facet normal -1.8103e-05 0.707085 0.707129
    outer loop
      vertex -0.600806 2.63231 2.671
      vertex -7.5 5.3033 0
      vertex -0.834346 2.56785 2.73545
    endloop
  endfacet
  facet normal 1 0 0
    outer loop
      vertex 7.5 -5.3033 10.6066
      vertex 7.5 -5.3033 0
      vertex 7.5 5.3033 0
    endloop
  endfacet
  facet normal 0 -1 0
    outer loop
      vertex -7.5 -5.3033 10.6066
      vertex -0.067297 -5.3033 5.99849
      vertex 7.5 -5.3033 10.6066
    endloop
  endfacet
  facet normal 0 -1 0
    outer loop
      vertex -7.5 -5.3033 10.6066
      vertex -0.201349 -5.3033 5.98642
      vertex -0.067297 -5.3033 5.99849
    endloop
  endfacet
  facet normal 0 -1 0
    outer loop
      vertex -7.5 -5.3033 10.6066
      vertex -0.333781 -5.3033 5.96239
      vertex -0.201349 -5.3033 5.98642
    endloop
  endfacet
  facet normal 0 -1 0
    outer loop
      vertex -7.5 -5.3033 10.6066
      vertex -0.463525 -5.3033 5.92658
      vertex -0.333781 -5.3033 5.96239
    endloop
  endfacet
  facet normal 0 -1 0
    outer loop
      vertex -7.5 -5.3033 10.6066
      vertex -0.589537 -5.3033 5.87929
      vertex -0.463525 -5.3033 5.92658
    endloop
  endfacet
  facet normal 0 -1 0
    outer loop
      vertex -7.5 -5.3033 10.6066
      vertex -0.710802 -5.3033 5.82089
      vertex -0.589537 -5.3033 5.87929
    endloop
  endfacet
  facet normal 0 -1 0
    outer loop
      vertex -7.5 -5.3033 10.6066
      vertex -0.826345 -5.3033 5.75186
      vertex -0.710802 -5.3033 5.82089
    endloop
  endfacet
  facet normal 0 -1 0
    outer loop
      vertex -7.5 -5.3033 10.6066
      vertex -0.935234 -5.3033 5.67275
      vertex -0.826345 -5.3033 5.75186
    endloop
  endfacet
  facet normal 0 -1 0
    outer loop
      vertex -7.5 -5.3033 10.6066
      vertex -1.03659 -5.3033 5.58419
      vertex -0.935234 -5.3033 5.67275
    endloop
  endfacet
  facet normal 0 -1 0
    outer loop
      vertex -7.5 -5.3033 10.6066
      vertex -1.12961 -5.3033 5.48691
      vertex -1.03659 -5.3033 5.58419
    endloop
  endfacet
  facet normal 0 -1 0
    outer loop
      vertex -7.5 -5.3033 10.6066
      vertex -1.21352 -5.3033 5.38168
      vertex -1.12961 -5.3033 5.48691
    endloop
  endfacet
  facet normal 0 -1 0
    outer loop
      vertex -7.5 -5.3033 10.6066
      vertex -1.28767 -5.3033 5.26935
      vertex -1.21352 -5.3033 5.38168
    endloop
  endfacet
  facet normal 0 -1 0
    outer loop
      vertex -7.5 -5.3033 10.6066
      vertex -1.35145 -5.3033 5.15083
      vertex -1.28767 -5.3033 5.26935
    endloop
  endfacet
  facet normal 0 -1 0
    outer loop
      vertex -7.5 -5.3033 10.6066
      vertex -1.40435 -5.3033 5.02706
      vertex -1.35145 -5.3033 5.15083
    endloop
  endfacet
  facet normal 0 -1 0
    outer loop
      vertex -7.5 -5.3033 10.6066
      vertex -1.44594 -5.3033 4.89905
      vertex -1.40435 -5.3033 5.02706
    endloop
  endfacet
  facet normal 0 -1 0
    outer loop
      vertex -7.5 -5.3033 10.6066
      vertex -1.47589 -5.3033 4.76783
      vertex -1.44594 -5.3033 4.89905
    endloop
  endfacet
  facet normal 0 -1 0
    outer loop
      vertex -7.5 -5.3033 10.6066
      vertex -1.49396 -5.3033 4.63446
      vertex -1.47589 -5.3033 4.76783
    endloop
  endfacet
  facet normal 0 -1 0
    outer loop
      vertex -7.5 -5.3033 0
      vertex -1.49396 -5.3033 4.63446
      vertex -7.5 -5.3033 10.6066
    endloop
  endfacet
  facet normal 0 -1 0
    outer loop
      vertex -1.49396 -5.3033 4.63446
      vertex -7.5 -5.3033 0
      vertex -1.5 -5.3033 4.5
    endloop
  endfacet
  facet normal 0 -1 -0
    outer loop
      vertex -1.5 -5.3033 4.5
      vertex -7.5 -5.3033 0
      vertex -1.49396 -5.3033 4.36554
    endloop
  endfacet
  facet normal 0 -1 -0
    outer loop
      vertex -1.49396 -5.3033 4.36554
      vertex -7.5 -5.3033 0
      vertex -1.47589 -5.3033 4.23216
    endloop
  endfacet
  facet normal 0 -1 -0
    outer loop
      vertex -1.47589 -5.3033 4.23216
      vertex -7.5 -5.3033 0
      vertex -1.44594 -5.3033 4.10094
    endloop
  endfacet
  facet normal 0 -1 -0
    outer loop
      vertex -1.44594 -5.3033 4.10094
      vertex -7.5 -5.3033 0
      vertex -1.40435 -5.3033 3.97294
    endloop
  endfacet
  facet normal 0 -1 -0
    outer loop
      vertex -1.40435 -5.3033 3.97294
      vertex -7.5 -5.3033 0
      vertex -1.35145 -5.3033 3.84917
    endloop
  endfacet
  facet normal 0 -1 -0
    outer loop
      vertex -1.35145 -5.3033 3.84917
      vertex -7.5 -5.3033 0
      vertex -1.28767 -5.3033 3.73065
    endloop
  endfacet
  facet normal 0 -1 -0
    outer loop
      vertex -1.28767 -5.3033 3.73065
      vertex -7.5 -5.3033 0
      vertex -1.21352 -5.3033 3.61832
    endloop
  endfacet
  facet normal 0 -1 -0
    outer loop
      vertex -0.067297 -5.3033 3.00151
      vertex -7.5 -5.3033 0
      vertex 0.067297 -5.3033 3.00151
    endloop
  endfacet
  facet normal 0 -1 -0
    outer loop
      vertex -0.201349 -5.3033 3.01357
      vertex -7.5 -5.3033 0
      vertex -0.067297 -5.3033 3.00151
    endloop
  endfacet
  facet normal 0 -1 -0
    outer loop
      vertex -0.333781 -5.3033 3.03761
      vertex -7.5 -5.3033 0
      vertex -0.201349 -5.3033 3.01357
    endloop
  endfacet
  facet normal 0 -1 -0
    outer loop
      vertex -0.463525 -5.3033 3.07341
      vertex -7.5 -5.3033 0
      vertex -0.333781 -5.3033 3.03761
    endloop
  endfacet
  facet normal 0 -1 -0
    outer loop
      vertex -0.589537 -5.3033 3.12071
      vertex -7.5 -5.3033 0
      vertex -0.463525 -5.3033 3.07341
    endloop
  endfacet
  facet normal 0 -1 -0
    outer loop
      vertex -0.710802 -5.3033 3.17911
      vertex -7.5 -5.3033 0
      vertex -0.589537 -5.3033 3.12071
    endloop
  endfacet
  facet normal 0 -1 -0
    outer loop
      vertex -0.826345 -5.3033 3.24814
      vertex -7.5 -5.3033 0
      vertex -0.710802 -5.3033 3.17911
    endloop
  endfacet
  facet normal 0 -1 -0
    outer loop
      vertex -0.935234 -5.3033 3.32725
      vertex -7.5 -5.3033 0
      vertex -0.826345 -5.3033 3.24814
    endloop
  endfacet
  facet normal 0 -1 -0
    outer loop
      vertex -1.03659 -5.3033 3.41581
      vertex -7.5 -5.3033 0
      vertex -0.935234 -5.3033 3.32725
    endloop
  endfacet
  facet normal 0 -1 -0
    outer loop
      vertex -1.12961 -5.3033 3.51309
      vertex -7.5 -5.3033 0
      vertex -1.03659 -5.3033 3.41581
    endloop
  endfacet
  facet normal 0 -1 -0
    outer loop
      vertex -1.21352 -5.3033 3.61832
      vertex -7.5 -5.3033 0
      vertex -1.12961 -5.3033 3.51309
    endloop
  endfacet
  facet normal 0 -1 0
    outer loop
      vertex 0.067297 -5.3033 5.99849
      vertex 7.5 -5.3033 10.6066
      vertex -0.067297 -5.3033 5.99849
    endloop
  endfacet
  facet normal 0 -1 0
    outer loop
      vertex 0.201349 -5.3033 5.98642
      vertex 7.5 -5.3033 10.6066
      vertex 0.067297 -5.3033 5.99849
    endloop
  endfacet
  facet normal 0 -1 0
    outer loop
      vertex 0.333781 -5.3033 5.96239
      vertex 7.5 -5.3033 10.6066
      vertex 0.201349 -5.3033 5.98642
    endloop
  endfacet
  facet normal 0 -1 0
    outer loop
      vertex 0.463525 -5.3033 5.92658
      vertex 7.5 -5.3033 10.6066
      vertex 0.333781 -5.3033 5.96239
    endloop
  endfacet
  facet normal 0 -1 0
    outer loop
      vertex 0.589537 -5.3033 5.87929
      vertex 7.5 -5.3033 10.6066
      vertex 0.463525 -5.3033 5.92658
    endloop
  endfacet
  facet normal 0 -1 0
    outer loop
      vertex 0.710802 -5.3033 5.82089
      vertex 7.5 -5.3033 10.6066
      vertex 0.589537 -5.3033 5.87929
    endloop
  endfacet
  facet normal 0 -1 0
    outer loop
      vertex 0.826345 -5.3033 5.75186
      vertex 7.5 -5.3033 10.6066
      vertex 0.710802 -5.3033 5.82089
    endloop
  endfacet
  facet normal 0 -1 0
    outer loop
      vertex 0.935234 -5.3033 5.67275
      vertex 7.5 -5.3033 10.6066
      vertex 0.826345 -5.3033 5.75186
    endloop
  endfacet
  facet normal 0 -1 0
    outer loop
      vertex 1.03659 -5.3033 5.58419
      vertex 7.5 -5.3033 10.6066
      vertex 0.935234 -5.3033 5.67275
    endloop
  endfacet
  facet normal 0 -1 0
    outer loop
      vertex 1.12961 -5.3033 5.48691
      vertex 7.5 -5.3033 10.6066
      vertex 1.03659 -5.3033 5.58419
    endloop
  endfacet
  facet normal 0 -1 0
    outer loop
      vertex 1.21352 -5.3033 5.38168
      vertex 7.5 -5.3033 10.6066
      vertex 1.12961 -5.3033 5.48691
    endloop
  endfacet
  facet normal 0 -1 0
    outer loop
      vertex 1.28767 -5.3033 5.26935
      vertex 7.5 -5.3033 10.6066
      vertex 1.21352 -5.3033 5.38168
    endloop
  endfacet
  facet normal 0 -1 0
    outer loop
      vertex 1.35145 -5.3033 5.15083
      vertex 7.5 -5.3033 10.6066
      vertex 1.28767 -5.3033 5.26935
    endloop
  endfacet
  facet normal 0 -1 0
    outer loop
      vertex 1.40435 -5.3033 5.02706
      vertex 7.5 -5.3033 10.6066
      vertex 1.35145 -5.3033 5.15083
    endloop
  endfacet
  facet normal 0 -1 0
    outer loop
      vertex 1.44594 -5.3033 4.89905
      vertex 7.5 -5.3033 10.6066
      vertex 1.40435 -5.3033 5.02706
    endloop
  endfacet
  facet normal 0 -1 0
    outer loop
      vertex 1.47589 -5.3033 4.76783
      vertex 7.5 -5.3033 10.6066
      vertex 1.44594 -5.3033 4.89905
    endloop
  endfacet
  facet normal 0 -1 0
    outer loop
      vertex 1.49396 -5.3033 4.63446
      vertex 7.5 -5.3033 10.6066
      vertex 1.47589 -5.3033 4.76783
    endloop
  endfacet
  facet normal 0 -1 0
    outer loop
      vertex 7.5 -5.3033 0
      vertex 1.49396 -5.3033 4.63446
      vertex 1.5 -5.3033 4.5
    endloop
  endfacet
  facet normal 0 -1 0
    outer loop
      vertex 7.5 -5.3033 0
      vertex 1.5 -5.3033 4.5
      vertex 1.49396 -5.3033 4.36554
    endloop
  endfacet
  facet normal 0 -1 0
    outer loop
      vertex 7.5 -5.3033 0
      vertex 1.49396 -5.3033 4.36554
      vertex 1.47589 -5.3033 4.23216
    endloop
  endfacet
  facet normal 0 -1 0
    outer loop
      vertex 7.5 -5.3033 0
      vertex 1.47589 -5.3033 4.23216
      vertex 1.44594 -5.3033 4.10094
    endloop
  endfacet
  facet normal 0 -1 0
    outer loop
      vertex 7.5 -5.3033 0
      vertex 1.44594 -5.3033 4.10094
      vertex 1.40435 -5.3033 3.97294
    endloop
  endfacet
  facet normal 0 -1 0
    outer loop
      vertex 7.5 -5.3033 0
      vertex 1.40435 -5.3033 3.97294
      vertex 1.35145 -5.3033 3.84917
    endloop
  endfacet
  facet normal 0 -1 0
    outer loop
      vertex 7.5 -5.3033 0
      vertex 1.35145 -5.3033 3.84917
      vertex 1.28767 -5.3033 3.73065
    endloop
  endfacet
  facet normal 0 -1 0
    outer loop
      vertex 7.5 -5.3033 0
      vertex 1.28767 -5.3033 3.73065
      vertex 1.21352 -5.3033 3.61832
    endloop
  endfacet
  facet normal 0 -1 0
    outer loop
      vertex 7.5 -5.3033 0
      vertex 1.21352 -5.3033 3.61832
      vertex 1.12961 -5.3033 3.51309
    endloop
  endfacet
  facet normal 0 -1 0
    outer loop
      vertex 7.5 -5.3033 0
      vertex 0.067297 -5.3033 3.00151
      vertex -7.5 -5.3033 0
    endloop
  endfacet
  facet normal 0 -1 0
    outer loop
      vertex 0.067297 -5.3033 3.00151
      vertex 7.5 -5.3033 0
      vertex 0.201349 -5.3033 3.01357
    endloop
  endfacet
  facet normal 0 -1 0
    outer loop
      vertex 0.201349 -5.3033 3.01357
      vertex 7.5 -5.3033 0
      vertex 0.333781 -5.3033 3.03761
    endloop
  endfacet
  facet normal 0 -1 0
    outer loop
      vertex 0.333781 -5.3033 3.03761
      vertex 7.5 -5.3033 0
      vertex 0.463525 -5.3033 3.07341
    endloop
  endfacet
  facet normal 0 -1 0
    outer loop
      vertex 1.49396 -5.3033 4.63446
      vertex 7.5 -5.3033 0
      vertex 7.5 -5.3033 10.6066
    endloop
  endfacet
  facet normal 0 -1 0
    outer loop
      vertex 1.03659 -5.3033 3.41581
      vertex 7.5 -5.3033 0
      vertex 1.12961 -5.3033 3.51309
    endloop
  endfacet
  facet normal 0 -1 0
    outer loop
      vertex 0.935234 -5.3033 3.32725
      vertex 7.5 -5.3033 0
      vertex 1.03659 -5.3033 3.41581
    endloop
  endfacet
  facet normal 0 -1 0
    outer loop
      vertex 0.826345 -5.3033 3.24814
      vertex 7.5 -5.3033 0
      vertex 0.935234 -5.3033 3.32725
    endloop
  endfacet
  facet normal 0 -1 0
    outer loop
      vertex 0.710802 -5.3033 3.17911
      vertex 7.5 -5.3033 0
      vertex 0.826345 -5.3033 3.24814
    endloop
  endfacet
  facet normal 0 -1 0
    outer loop
      vertex 0.589537 -5.3033 3.12071
      vertex 7.5 -5.3033 0
      vertex 0.710802 -5.3033 3.17911
    endloop
  endfacet
  facet normal 0 -1 0
    outer loop
      vertex 0.463525 -5.3033 3.07341
      vertex 7.5 -5.3033 0
      vertex 0.589537 -5.3033 3.12071
    endloop
  endfacet
  facet normal 0 0 -1
    outer loop
      vertex 7.5 -5.3033 0
      vertex 2.7 0 0
      vertex 7.5 5.3033 0
    endloop
  endfacet
  facet normal 0 0 -1
    outer loop
      vertex 7.5 -5.3033 0
      vertex 2.68913 -0.242025 0
      vertex 2.7 0 0
    endloop
  endfacet
  facet normal 0 0 -1
    outer loop
      vertex 7.5 -5.3033 0
      vertex 2.65661 -0.482103 0
      vertex 2.68913 -0.242025 0
    endloop
  endfacet
  facet normal 0 0 -1
    outer loop
      vertex 7.5 -5.3033 0
      vertex 2.6027 -0.718299 0
      vertex 2.65661 -0.482103 0
    endloop
  endfacet
  facet normal 0 0 -1
    outer loop
      vertex 7.5 -5.3033 0
      vertex 2.52783 -0.948711 0
      vertex 2.6027 -0.718299 0
    endloop
  endfacet
  facet normal 0 0 -1
    outer loop
      vertex 7.5 -5.3033 0
      vertex 2.43262 -1.17149 0
      vertex 2.52783 -0.948711 0
    endloop
  endfacet
  facet normal 0 0 -1
    outer loop
      vertex 7.5 -5.3033 0
      vertex 2.31781 -1.38483 0
      vertex 2.43262 -1.17149 0
    endloop
  endfacet
  facet normal 0 0 -1
    outer loop
      vertex 7.5 -5.3033 0
      vertex 2.18435 -1.58702 0
      vertex 2.31781 -1.38483 0
    endloop
  endfacet
  facet normal 0 0 -1
    outer loop
      vertex 7.5 -5.3033 0
      vertex 2.03329 -1.77643 0
      vertex 2.18435 -1.58702 0
    endloop
  endfacet
  facet normal 0 0 -1
    outer loop
      vertex 7.5 -5.3033 0
      vertex 1.86587 -1.95155 0
      vertex 2.03329 -1.77643 0
    endloop
  endfacet
  facet normal 0 0 -1
    outer loop
      vertex 7.5 -5.3033 0
      vertex 1.68342 -2.11094 0
      vertex 1.86587 -1.95155 0
    endloop
  endfacet
  facet normal 0 0 -1
    outer loop
      vertex 7.5 -5.3033 0
      vertex 1.48742 -2.25335 0
      vertex 1.68342 -2.11094 0
    endloop
  endfacet
  facet normal 0 0 -1
    outer loop
      vertex 7.5 -5.3033 0
      vertex 1.27944 -2.37761 0
      vertex 1.48742 -2.25335 0
    endloop
  endfacet
  facet normal 0 0 -1
    outer loop
      vertex 7.5 -5.3033 0
      vertex 1.06117 -2.48272 0
      vertex 1.27944 -2.37761 0
    endloop
  endfacet
  facet normal 0 0 -1
    outer loop
      vertex 7.5 -5.3033 0
      vertex 0.834346 -2.56785 0
      vertex 1.06117 -2.48272 0
    endloop
  endfacet
  facet normal 0 0 -1
    outer loop
      vertex 7.5 -5.3033 0
      vertex 0.600806 -2.63231 0
      vertex 0.834346 -2.56785 0
    endloop
  endfacet
  facet normal 0 0 -1
    outer loop
      vertex 7.5 -5.3033 0
      vertex 0.36243 -2.67556 0
      vertex 0.600806 -2.63231 0
    endloop
  endfacet
  facet normal 0 0 -1
    outer loop
      vertex 7.5 -5.3033 0
      vertex 0.121135 -2.69728 0
      vertex 0.36243 -2.67556 0
    endloop
  endfacet
  facet normal 0 0 -1
    outer loop
      vertex 7.5 -5.3033 0
      vertex -0.121135 -2.69728 0
      vertex 0.121135 -2.69728 0
    endloop
  endfacet
  facet normal 0 0 -1
    outer loop
      vertex -7.5 -5.3033 0
      vertex -0.121135 -2.69728 0
      vertex 7.5 -5.3033 0
    endloop
  endfacet
  facet normal -0 0 -1
    outer loop
      vertex -0.121135 -2.69728 0
      vertex -7.5 -5.3033 0
      vertex -0.36243 -2.67556 0
    endloop
  endfacet
  facet normal -0 0 -1
    outer loop
      vertex -0.36243 -2.67556 0
      vertex -7.5 -5.3033 0
      vertex -0.600806 -2.63231 0
    endloop
  endfacet
  facet normal -0 0 -1
    outer loop
      vertex -2.68913 -0.242025 0
      vertex -7.5 -5.3033 0
      vertex -2.7 0 0
    endloop
  endfacet
  facet normal -0 0 -1
    outer loop
      vertex -2.65661 -0.482103 0
      vertex -7.5 -5.3033 0
      vertex -2.68913 -0.242025 0
    endloop
  endfacet
  facet normal -0 0 -1
    outer loop
      vertex -2.6027 -0.718299 0
      vertex -7.5 -5.3033 0
      vertex -2.65661 -0.482103 0
    endloop
  endfacet
  facet normal -0 0 -1
    outer loop
      vertex -2.52783 -0.948711 0
      vertex -7.5 -5.3033 0
      vertex -2.6027 -0.718299 0
    endloop
  endfacet
  facet normal -0 0 -1
    outer loop
      vertex -2.43262 -1.17149 0
      vertex -7.5 -5.3033 0
      vertex -2.52783 -0.948711 0
    endloop
  endfacet
  facet normal -0 0 -1
    outer loop
      vertex -2.31781 -1.38483 0
      vertex -7.5 -5.3033 0
      vertex -2.43262 -1.17149 0
    endloop
  endfacet
  facet normal -0 0 -1
    outer loop
      vertex -2.18435 -1.58702 0
      vertex -7.5 -5.3033 0
      vertex -2.31781 -1.38483 0
    endloop
  endfacet
  facet normal -0 0 -1
    outer loop
      vertex -2.03329 -1.77643 0
      vertex -7.5 -5.3033 0
      vertex -2.18435 -1.58702 0
    endloop
  endfacet
  facet normal -0 0 -1
    outer loop
      vertex -1.86587 -1.95155 0
      vertex -7.5 -5.3033 0
      vertex -2.03329 -1.77643 0
    endloop
  endfacet
  facet normal -0 0 -1
    outer loop
      vertex -1.68342 -2.11094 0
      vertex -7.5 -5.3033 0
      vertex -1.86587 -1.95155 0
    endloop
  endfacet
  facet normal -0 0 -1
    outer loop
      vertex -1.48742 -2.25335 0
      vertex -7.5 -5.3033 0
      vertex -1.68342 -2.11094 0
    endloop
  endfacet
  facet normal -0 0 -1
    outer loop
      vertex -1.27944 -2.37761 0
      vertex -7.5 -5.3033 0
      vertex -1.48742 -2.25335 0
    endloop
  endfacet
  facet normal -0 0 -1
    outer loop
      vertex -1.06117 -2.48272 0
      vertex -7.5 -5.3033 0
      vertex -1.27944 -2.37761 0
    endloop
  endfacet
  facet normal -0 0 -1
    outer loop
      vertex -0.834346 -2.56785 0
      vertex -7.5 -5.3033 0
      vertex -1.06117 -2.48272 0
    endloop
  endfacet
  facet normal -0 0 -1
    outer loop
      vertex -0.600806 -2.63231 0
      vertex -7.5 -5.3033 0
      vertex -0.834346 -2.56785 0
    endloop
  endfacet
  facet normal 0 0 -1
    outer loop
      vertex 2.68913 0.242025 0
      vertex 7.5 5.3033 0
      vertex 2.7 0 0
    endloop
  endfacet
  facet normal 0 0 -1
    outer loop
      vertex 2.65661 0.482103 0
      vertex 7.5 5.3033 0
      vertex 2.68913 0.242025 0
    endloop
  endfacet
  facet normal 0 0 -1
    outer loop
      vertex 2.6027 0.718299 0
      vertex 7.5 5.3033 0
      vertex 2.65661 0.482103 0
    endloop
  endfacet
  facet normal 0 0 -1
    outer loop
      vertex 2.52783 0.948711 0
      vertex 7.5 5.3033 0
      vertex 2.6027 0.718299 0
    endloop
  endfacet
  facet normal 0 0 -1
    outer loop
      vertex 2.43262 1.17149 0
      vertex 7.5 5.3033 0
      vertex 2.52783 0.948711 0
    endloop
  endfacet
  facet normal 0 0 -1
    outer loop
      vertex 2.31781 1.38483 0
      vertex 7.5 5.3033 0
      vertex 2.43262 1.17149 0
    endloop
  endfacet
  facet normal 0 0 -1
    outer loop
      vertex 2.18435 1.58702 0
      vertex 7.5 5.3033 0
      vertex 2.31781 1.38483 0
    endloop
  endfacet
  facet normal 0 0 -1
    outer loop
      vertex 2.03329 1.77643 0
      vertex 7.5 5.3033 0
      vertex 2.18435 1.58702 0
    endloop
  endfacet
  facet normal 0 0 -1
    outer loop
      vertex 1.86587 1.95155 0
      vertex 7.5 5.3033 0
      vertex 2.03329 1.77643 0
    endloop
  endfacet
  facet normal 0 0 -1
    outer loop
      vertex 1.68342 2.11094 0
      vertex 7.5 5.3033 0
      vertex 1.86587 1.95155 0
    endloop
  endfacet
  facet normal 0 0 -1
    outer loop
      vertex 1.48742 2.25335 0
      vertex 7.5 5.3033 0
      vertex 1.68342 2.11094 0
    endloop
  endfacet
  facet normal 0 0 -1
    outer loop
      vertex 1.27944 2.37761 0
      vertex 7.5 5.3033 0
      vertex 1.48742 2.25335 0
    endloop
  endfacet
  facet normal 0 0 -1
    outer loop
      vertex 1.06117 2.48272 0
      vertex 7.5 5.3033 0
      vertex 1.27944 2.37761 0
    endloop
  endfacet
  facet normal 0 0 -1
    outer loop
      vertex 0.834346 2.56785 0
      vertex 7.5 5.3033 0
      vertex 1.06117 2.48272 0
    endloop
  endfacet
  facet normal 0 0 -1
    outer loop
      vertex 0.600806 2.63231 0
      vertex 7.5 5.3033 0
      vertex 0.834346 2.56785 0
    endloop
  endfacet
  facet normal 0 0 -1
    outer loop
      vertex 0.36243 2.67556 0
      vertex 7.5 5.3033 0
      vertex 0.600806 2.63231 0
    endloop
  endfacet
  facet normal 0 0 -1
    outer loop
      vertex 0.121135 2.69728 0
      vertex 7.5 5.3033 0
      vertex 0.36243 2.67556 0
    endloop
  endfacet
  facet normal 0 0 -1
    outer loop
      vertex -0.121135 2.69728 0
      vertex 7.5 5.3033 0
      vertex 0.121135 2.69728 0
    endloop
  endfacet
  facet normal 0 0 -1
    outer loop
      vertex -7.5 5.3033 0
      vertex -0.121135 2.69728 0
      vertex -0.36243 2.67556 0
    endloop
  endfacet
  facet normal 0 0 -1
    outer loop
      vertex -7.5 5.3033 0
      vertex -0.36243 2.67556 0
      vertex -0.600806 2.63231 0
    endloop
  endfacet
  facet normal 0 0 -1
    outer loop
      vertex -7.5 5.3033 0
      vertex -0.600806 2.63231 0
      vertex -0.834346 2.56785 0
    endloop
  endfacet
  facet normal 0 0 -1
    outer loop
      vertex -7.5 5.3033 0
      vertex -2.7 0 0
      vertex -7.5 -5.3033 0
    endloop
  endfacet
  facet normal 0 0 -1
    outer loop
      vertex -2.7 0 0
      vertex -7.5 5.3033 0
      vertex -2.68913 0.242025 0
    endloop
  endfacet
  facet normal 0 0 -1
    outer loop
      vertex -2.68913 0.242025 0
      vertex -7.5 5.3033 0
      vertex -2.65661 0.482103 0
    endloop
  endfacet
  facet normal 0 0 -1
    outer loop
      vertex -2.65661 0.482103 0
      vertex -7.5 5.3033 0
      vertex -2.6027 0.718299 0
    endloop
  endfacet
  facet normal 0 0 -1
    outer loop
      vertex -2.6027 0.718299 0
      vertex -7.5 5.3033 0
      vertex -2.52783 0.948711 0
    endloop
  endfacet
  facet normal 0 0 -1
    outer loop
      vertex -2.52783 0.948711 0
      vertex -7.5 5.3033 0
      vertex -2.43262 1.17149 0
    endloop
  endfacet
  facet normal 0 0 -1
    outer loop
      vertex -2.43262 1.17149 0
      vertex -7.5 5.3033 0
      vertex -2.31781 1.38483 0
    endloop
  endfacet
  facet normal 0 0 -1
    outer loop
      vertex -0.121135 2.69728 0
      vertex -7.5 5.3033 0
      vertex 7.5 5.3033 0
    endloop
  endfacet
  facet normal 0 0 -1
    outer loop
      vertex -1.06117 2.48272 0
      vertex -7.5 5.3033 0
      vertex -0.834346 2.56785 0
    endloop
  endfacet
  facet normal 0 0 -1
    outer loop
      vertex -1.27944 2.37761 0
      vertex -7.5 5.3033 0
      vertex -1.06117 2.48272 0
    endloop
  endfacet
  facet normal 0 0 -1
    outer loop
      vertex -1.48742 2.25335 0
      vertex -7.5 5.3033 0
      vertex -1.27944 2.37761 0
    endloop
  endfacet
  facet normal 0 0 -1
    outer loop
      vertex -1.68342 2.11094 0
      vertex -7.5 5.3033 0
      vertex -1.48742 2.25335 0
    endloop
  endfacet
  facet normal 0 0 -1
    outer loop
      vertex -1.86587 1.95155 0
      vertex -7.5 5.3033 0
      vertex -1.68342 2.11094 0
    endloop
  endfacet
  facet normal 0 0 -1
    outer loop
      vertex -2.03329 1.77643 0
      vertex -7.5 5.3033 0
      vertex -1.86587 1.95155 0
    endloop
  endfacet
  facet normal 0 0 -1
    outer loop
      vertex -2.18435 1.58702 0
      vertex -7.5 5.3033 0
      vertex -2.03329 1.77643 0
    endloop
  endfacet
  facet normal 0 0 -1
    outer loop
      vertex -2.31781 1.38483 0
      vertex -7.5 5.3033 0
      vertex -2.18435 1.58702 0
    endloop
  endfacet
  facet normal -0.722755 0 -0.691105
    outer loop
      vertex 1.12961 -5.3033 5.48691
      vertex 1.03659 -0.280891 5.58419
      vertex 1.12961 -0.183607 5.48691
    endloop
  endfacet
  facet normal -0.722755 -0 -0.691105
    outer loop
      vertex 1.03659 -0.280891 5.58419
      vertex 1.12961 -5.3033 5.48691
      vertex 1.03659 -5.3033 5.58419
    endloop
  endfacet
  facet normal -0.990946 0 -0.134261
    outer loop
      vertex 1.49396 -5.3033 4.63446
      vertex 1.47589 0.5 4.76783
      vertex 1.49396 0.5 4.63446
    endloop
  endfacet
  facet normal -0.990946 -0 -0.134261
    outer loop
      vertex 1.47589 0.5 4.76783
      vertex 1.49396 -5.3033 4.63446
      vertex 1.47589 -5.3033 4.76783
    endloop
  endfacet
  facet normal -0.998993 0 -0.0448752
    outer loop
      vertex 1.5 -5.3033 4.5
      vertex 1.49396 0.5 4.63446
      vertex 1.5 0.5 4.5
    endloop
  endfacet
  facet normal -0.998993 -0 -0.0448752
    outer loop
      vertex 1.49396 0.5 4.63446
      vertex 1.5 -5.3033 4.5
      vertex 1.49396 -5.3033 4.63446
    endloop
  endfacet
  facet normal 0.178536 0 -0.983933
    outer loop
      vertex -0.333781 -5.3033 5.96239
      vertex -0.201349 -0.683124 5.98642
      vertex -0.201349 -5.3033 5.98642
    endloop
  endfacet
  facet normal 0.178536 0 -0.983933
    outer loop
      vertex -0.201349 -0.683124 5.98642
      vertex -0.333781 -5.3033 5.96239
      vertex -0.333781 -0.659091 5.96239
    endloop
  endfacet
  facet normal 0.919533 -0 0.393013
    outer loop
      vertex -1.40435 -5.3033 3.97294
      vertex -1.35145 0.5 3.84917
      vertex -1.40435 0.5 3.97294
    endloop
  endfacet
  facet normal 0.919533 0 0.393013
    outer loop
      vertex -1.35145 0.5 3.84917
      vertex -1.40435 -5.3033 3.97294
      vertex -1.35145 -5.3033 3.84917
    endloop
  endfacet
  facet normal -0.587773 -0 -0.809026
    outer loop
      vertex 0.826345 -0.448559 5.75186
      vertex 0.935234 -5.3033 5.67275
      vertex 0.826345 -5.3033 5.75186
    endloop
  endfacet
  facet normal -0.587773 0 -0.809026
    outer loop
      vertex 0.935234 -5.3033 5.67275
      vertex 0.826345 -0.448559 5.75186
      vertex 0.935234 -0.369446 5.67275
    endloop
  endfacet
  facet normal 0.512879 0 -0.858461
    outer loop
      vertex -0.826345 -5.3033 5.75186
      vertex -0.710802 -0.517592 5.82089
      vertex -0.710802 -5.3033 5.82089
    endloop
  endfacet
  facet normal 0.512879 0 -0.858461
    outer loop
      vertex -0.710802 -0.517592 5.82089
      vertex -0.826345 -5.3033 5.75186
      vertex -0.826345 -0.448559 5.75186
    endloop
  endfacet
  facet normal 0 0 -1
    outer loop
      vertex -0.067297 -5.3033 5.99849
      vertex 0.067297 -0.695189 5.99849
      vertex 0.067297 -5.3033 5.99849
    endloop
  endfacet
  facet normal -0 0 -1
    outer loop
      vertex 0.067297 -0.695189 5.99849
      vertex -0.067297 -5.3033 5.99849
      vertex -0.067297 -0.695189 5.99849
    endloop
  endfacet
  facet normal -0.974962 0.000217217 -0.222369
    outer loop
      vertex 1.47589 0.5 4.76783
      vertex 1.44594 0.404246 4.89905
      vertex 1.4678 0.5 4.8033
    endloop
  endfacet
  facet normal -0.974928 0 -0.22252
    outer loop
      vertex 1.47589 -5.3033 4.76783
      vertex 1.44594 0.404246 4.89905
      vertex 1.47589 0.5 4.76783
    endloop
  endfacet
  facet normal -0.974928 -0 -0.22252
    outer loop
      vertex 1.44594 0.404246 4.89905
      vertex 1.47589 -5.3033 4.76783
      vertex 1.44594 -5.3033 4.89905
    endloop
  endfacet
  facet normal 0.657972 0 -0.753042
    outer loop
      vertex -1.03659 -5.3033 5.58419
      vertex -0.935234 -0.369446 5.67275
      vertex -0.935234 -5.3033 5.67275
    endloop
  endfacet
  facet normal 0.657972 0 -0.753042
    outer loop
      vertex -0.935234 -0.369446 5.67275
      vertex -1.03659 -5.3033 5.58419
      vertex -1.03659 -0.280891 5.58419
    endloop
  endfacet
  facet normal 0.657972 0 0.753042
    outer loop
      vertex -1.03659 0.5 3.41581
      vertex -0.935234 -5.3033 3.32725
      vertex -0.935234 0.5 3.32725
    endloop
  endfacet
  facet normal 0.657972 0 0.753042
    outer loop
      vertex -0.935234 -5.3033 3.32725
      vertex -1.03659 0.5 3.41581
      vertex -1.03659 -5.3033 3.41581
    endloop
  endfacet
  facet normal -0.0896032 0 0.995978
    outer loop
      vertex 0.067297 0.5 3.00151
      vertex 0.201349 -5.3033 3.01357
      vertex 0.201349 0.5 3.01357
    endloop
  endfacet
  facet normal -0.0896032 0 0.995978
    outer loop
      vertex 0.201349 -5.3033 3.01357
      vertex 0.067297 0.5 3.00151
      vertex 0.067297 -5.3033 3.00151
    endloop
  endfacet
  facet normal 0.951056 -0 0.309019
    outer loop
      vertex -1.44594 -5.3033 4.10094
      vertex -1.40435 0.5 3.97294
      vertex -1.44594 0.5 4.10094
    endloop
  endfacet
  facet normal 0.951056 0 0.309019
    outer loop
      vertex -1.40435 0.5 3.97294
      vertex -1.44594 -5.3033 4.10094
      vertex -1.40435 -5.3033 3.97294
    endloop
  endfacet
  facet normal -0.512879 0 0.858461
    outer loop
      vertex 0.710802 0.5 3.17911
      vertex 0.826345 -5.3033 3.24814
      vertex 0.826345 0.5 3.24814
    endloop
  endfacet
  facet normal -0.512879 0 0.858461
    outer loop
      vertex 0.826345 -5.3033 3.24814
      vertex 0.710802 0.5 3.17911
      vertex 0.710802 -5.3033 3.17911
    endloop
  endfacet
  facet normal -0.919533 0 -0.393013
    outer loop
      vertex 1.40435 -5.3033 5.02706
      vertex 1.35145 0.152475 5.15083
      vertex 1.40435 0.276239 5.02706
    endloop
  endfacet
  facet normal -0.919533 -0 -0.393013
    outer loop
      vertex 1.35145 0.152475 5.15083
      vertex 1.40435 -5.3033 5.02706
      vertex 1.35145 -5.3033 5.15083
    endloop
  endfacet
  facet normal -0.974928 0 0.22252
    outer loop
      vertex 1.44594 -5.3033 4.10094
      vertex 1.47589 0.5 4.23216
      vertex 1.44594 0.5 4.10094
    endloop
  endfacet
  facet normal -0.974928 0 0.22252
    outer loop
      vertex 1.47589 0.5 4.23216
      vertex 1.44594 -5.3033 4.10094
      vertex 1.47589 -5.3033 4.23216
    endloop
  endfacet
  facet normal -0.781861 0 0.623453
    outer loop
      vertex 1.12961 -5.3033 3.51309
      vertex 1.21352 0.5 3.61832
      vertex 1.12961 0.5 3.51309
    endloop
  endfacet
  facet normal -0.781861 0 0.623453
    outer loop
      vertex 1.21352 0.5 3.61832
      vertex 1.12961 -5.3033 3.51309
      vertex 1.21352 -5.3033 3.61832
    endloop
  endfacet
  facet normal 0.512879 0 0.858461
    outer loop
      vertex -0.826345 0.5 3.24814
      vertex -0.710802 -5.3033 3.17911
      vertex -0.710802 0.5 3.17911
    endloop
  endfacet
  facet normal 0.512879 0 0.858461
    outer loop
      vertex -0.710802 -5.3033 3.17911
      vertex -0.826345 0.5 3.24814
      vertex -0.826345 -5.3033 3.24814
    endloop
  endfacet
  facet normal -0.951056 0 0.309019
    outer loop
      vertex 1.40435 -5.3033 3.97294
      vertex 1.44594 0.5 4.10094
      vertex 1.40435 0.5 3.97294
    endloop
  endfacet
  facet normal -0.951056 0 0.309019
    outer loop
      vertex 1.44594 0.5 4.10094
      vertex 1.40435 -5.3033 3.97294
      vertex 1.44594 -5.3033 4.10094
    endloop
  endfacet
  facet normal -0.834568 0 -0.550905
    outer loop
      vertex 1.28767 -5.3033 5.26935
      vertex 1.21352 -0.0783768 5.38168
      vertex 1.28767 0.0339527 5.26935
    endloop
  endfacet
  facet normal -0.834568 -0 -0.550905
    outer loop
      vertex 1.21352 -0.0783768 5.38168
      vertex 1.28767 -5.3033 5.26935
      vertex 1.21352 -5.3033 5.38168
    endloop
  endfacet
  facet normal -0.998993 0 0.0448752
    outer loop
      vertex 1.49396 -5.3033 4.36554
      vertex 1.5 0.5 4.5
      vertex 1.49396 0.5 4.36554
    endloop
  endfacet
  facet normal -0.998993 0 0.0448752
    outer loop
      vertex 1.5 0.5 4.5
      vertex 1.49396 -5.3033 4.36554
      vertex 1.5 -5.3033 4.5
    endloop
  endfacet
  facet normal 0.587773 0 -0.809026
    outer loop
      vertex -0.935234 -5.3033 5.67275
      vertex -0.826345 -0.448559 5.75186
      vertex -0.826345 -5.3033 5.75186
    endloop
  endfacet
  facet normal 0.587773 0 -0.809026
    outer loop
      vertex -0.826345 -0.448559 5.75186
      vertex -0.935234 -5.3033 5.67275
      vertex -0.935234 -0.369446 5.67275
    endloop
  endfacet
  facet normal -0.834568 0 0.550905
    outer loop
      vertex 1.21352 -5.3033 3.61832
      vertex 1.28767 0.5 3.73065
      vertex 1.21352 0.5 3.61832
    endloop
  endfacet
  facet normal -0.834568 0 0.550905
    outer loop
      vertex 1.28767 0.5 3.73065
      vertex 1.21352 -5.3033 3.61832
      vertex 1.28767 -5.3033 3.73065
    endloop
  endfacet
  facet normal 0.990947 -0 0.134251
    outer loop
      vertex -1.49396 -5.3033 4.36554
      vertex -1.47589 0.5 4.23216
      vertex -1.49396 0.5 4.36554
    endloop
  endfacet
  facet normal 0.990947 0 0.134251
    outer loop
      vertex -1.47589 0.5 4.23216
      vertex -1.49396 -5.3033 4.36554
      vertex -1.47589 -5.3033 4.23216
    endloop
  endfacet
  facet normal 0.433895 0 -0.900963
    outer loop
      vertex -0.710802 -5.3033 5.82089
      vertex -0.589537 -0.575991 5.87929
      vertex -0.589537 -5.3033 5.87929
    endloop
  endfacet
  facet normal 0.433895 0 -0.900963
    outer loop
      vertex -0.589537 -0.575991 5.87929
      vertex -0.710802 -5.3033 5.82089
      vertex -0.710802 -0.517592 5.82089
    endloop
  endfacet
  facet normal 0.587773 0 0.809026
    outer loop
      vertex -0.935234 0.5 3.32725
      vertex -0.826345 -5.3033 3.24814
      vertex -0.826345 0.5 3.24814
    endloop
  endfacet
  facet normal 0.587773 0 0.809026
    outer loop
      vertex -0.826345 -5.3033 3.24814
      vertex -0.935234 0.5 3.32725
      vertex -0.935234 -5.3033 3.32725
    endloop
  endfacet
  facet normal 0.266057 0 -0.963957
    outer loop
      vertex -0.463525 -5.3033 5.92658
      vertex -0.333781 -0.659091 5.96239
      vertex -0.333781 -5.3033 5.96239
    endloop
  endfacet
  facet normal 0.266057 0 -0.963957
    outer loop
      vertex -0.333781 -0.659091 5.96239
      vertex -0.463525 -5.3033 5.92658
      vertex -0.463525 -0.623283 5.92658
    endloop
  endfacet
  facet normal 0.998993 0 -0.0448752
    outer loop
      vertex -1.49396 -5.3033 4.63446
      vertex -1.5 0.5 4.5
      vertex -1.49396 0.5 4.63446
    endloop
  endfacet
  facet normal 0.998993 0 -0.0448752
    outer loop
      vertex -1.5 0.5 4.5
      vertex -1.49396 -5.3033 4.63446
      vertex -1.5 -5.3033 4.5
    endloop
  endfacet
  facet normal -0.919533 0 0.393013
    outer loop
      vertex 1.35145 -5.3033 3.84917
      vertex 1.40435 0.5 3.97294
      vertex 1.35145 0.5 3.84917
    endloop
  endfacet
  facet normal -0.919533 0 0.393013
    outer loop
      vertex 1.40435 0.5 3.97294
      vertex 1.35145 -5.3033 3.84917
      vertex 1.40435 -5.3033 3.97294
    endloop
  endfacet
  facet normal -0.351355 -0 -0.936242
    outer loop
      vertex 0.463525 -0.623283 5.92658
      vertex 0.589537 -5.3033 5.87929
      vertex 0.463525 -5.3033 5.92658
    endloop
  endfacet
  facet normal -0.351355 0 -0.936242
    outer loop
      vertex 0.589537 -5.3033 5.87929
      vertex 0.463525 -0.623283 5.92658
      vertex 0.589537 -0.575991 5.87929
    endloop
  endfacet
  facet normal -0.178608 0 0.98392
    outer loop
      vertex 0.201349 0.5 3.01357
      vertex 0.333781 -5.3033 3.03761
      vertex 0.333781 0.5 3.03761
    endloop
  endfacet
  facet normal -0.178608 0 0.98392
    outer loop
      vertex 0.333781 -5.3033 3.03761
      vertex 0.201349 0.5 3.01357
      vertex 0.201349 -5.3033 3.01357
    endloop
  endfacet
  facet normal -0.88059 0 -0.473878
    outer loop
      vertex 1.35145 -5.3033 5.15083
      vertex 1.28767 0.0339527 5.26935
      vertex 1.35145 0.152475 5.15083
    endloop
  endfacet
  facet normal -0.88059 -0 -0.473878
    outer loop
      vertex 1.28767 0.0339527 5.26935
      vertex 1.35145 -5.3033 5.15083
      vertex 1.28767 -5.3033 5.26935
    endloop
  endfacet
  facet normal 0.88059 0 -0.473878
    outer loop
      vertex -1.35145 -5.3033 5.15083
      vertex -1.28767 0.0339527 5.26935
      vertex -1.28767 -5.3033 5.26935
    endloop
  endfacet
  facet normal 0.88059 0 -0.473878
    outer loop
      vertex -1.28767 0.0339527 5.26935
      vertex -1.35145 -5.3033 5.15083
      vertex -1.35145 0.152475 5.15083
    endloop
  endfacet
  facet normal -0.951063 0 -0.308997
    outer loop
      vertex 1.44594 -5.3033 4.89905
      vertex 1.40435 0.276239 5.02706
      vertex 1.44594 0.404246 4.89905
    endloop
  endfacet
  facet normal -0.951063 -0 -0.308997
    outer loop
      vertex 1.40435 0.276239 5.02706
      vertex 1.44594 -5.3033 4.89905
      vertex 1.40435 -5.3033 5.02706
    endloop
  endfacet
  facet normal 0.974962 0.000217217 -0.222369
    outer loop
      vertex -1.44594 0.404246 4.89905
      vertex -1.47589 0.5 4.76783
      vertex -1.4678 0.5 4.8033
    endloop
  endfacet
  facet normal 0.974928 0 -0.22252
    outer loop
      vertex -1.47589 -5.3033 4.76783
      vertex -1.44594 0.404246 4.89905
      vertex -1.44594 -5.3033 4.89905
    endloop
  endfacet
  facet normal 0.974928 0 -0.22252
    outer loop
      vertex -1.44594 0.404246 4.89905
      vertex -1.47589 -5.3033 4.76783
      vertex -1.47589 0.5 4.76783
    endloop
  endfacet
  facet normal 0.178608 0 0.98392
    outer loop
      vertex -0.333781 0.5 3.03761
      vertex -0.201349 -5.3033 3.01357
      vertex -0.201349 0.5 3.01357
    endloop
  endfacet
  facet normal 0.178608 0 0.98392
    outer loop
      vertex -0.201349 -5.3033 3.01357
      vertex -0.333781 0.5 3.03761
      vertex -0.333781 -5.3033 3.03761
    endloop
  endfacet
  facet normal 0.919533 0 -0.393013
    outer loop
      vertex -1.40435 -5.3033 5.02706
      vertex -1.35145 0.152475 5.15083
      vertex -1.35145 -5.3033 5.15083
    endloop
  endfacet
  facet normal 0.919533 0 -0.393013
    outer loop
      vertex -1.35145 0.152475 5.15083
      vertex -1.40435 -5.3033 5.02706
      vertex -1.40435 0.276239 5.02706
    endloop
  endfacet
  facet normal -0.433895 -0 -0.900963
    outer loop
      vertex 0.589537 -0.575991 5.87929
      vertex 0.710802 -5.3033 5.82089
      vertex 0.589537 -5.3033 5.87929
    endloop
  endfacet
  facet normal -0.433895 0 -0.900963
    outer loop
      vertex 0.710802 -5.3033 5.82089
      vertex 0.589537 -0.575991 5.87929
      vertex 0.710802 -0.517592 5.82089
    endloop
  endfacet
  facet normal -0.657972 -0 -0.753042
    outer loop
      vertex 0.935234 -0.369446 5.67275
      vertex 1.03659 -5.3033 5.58419
      vertex 0.935234 -5.3033 5.67275
    endloop
  endfacet
  facet normal -0.657972 0 -0.753042
    outer loop
      vertex 1.03659 -5.3033 5.58419
      vertex 0.935234 -0.369446 5.67275
      vertex 1.03659 -0.280891 5.58419
    endloop
  endfacet
  facet normal -0.0896769 -0 -0.995971
    outer loop
      vertex 0.067297 -0.695189 5.99849
      vertex 0.201349 -5.3033 5.98642
      vertex 0.067297 -5.3033 5.99849
    endloop
  endfacet
  facet normal -0.0896769 0 -0.995971
    outer loop
      vertex 0.201349 -5.3033 5.98642
      vertex 0.067297 -0.695189 5.99849
      vertex 0.201349 -0.683124 5.98642
    endloop
  endfacet
  facet normal -0.512879 -0 -0.858461
    outer loop
      vertex 0.710802 -0.517592 5.82089
      vertex 0.826345 -5.3033 5.75186
      vertex 0.710802 -5.3033 5.82089
    endloop
  endfacet
  facet normal -0.512879 0 -0.858461
    outer loop
      vertex 0.826345 -5.3033 5.75186
      vertex 0.710802 -0.517592 5.82089
      vertex 0.826345 -0.448559 5.75186
    endloop
  endfacet
  facet normal 0.88059 -0 0.473878
    outer loop
      vertex -1.35145 -5.3033 3.84917
      vertex -1.28767 0.5 3.73065
      vertex -1.35145 0.5 3.84917
    endloop
  endfacet
  facet normal 0.88059 0 0.473878
    outer loop
      vertex -1.28767 0.5 3.73065
      vertex -1.35145 -5.3033 3.84917
      vertex -1.28767 -5.3033 3.73065
    endloop
  endfacet
  facet normal -0.657972 0 0.753042
    outer loop
      vertex 0.935234 0.5 3.32725
      vertex 1.03659 -5.3033 3.41581
      vertex 1.03659 0.5 3.41581
    endloop
  endfacet
  facet normal -0.657972 0 0.753042
    outer loop
      vertex 1.03659 -5.3033 3.41581
      vertex 0.935234 0.5 3.32725
      vertex 0.935234 -5.3033 3.32725
    endloop
  endfacet
  facet normal -0 0 1
    outer loop
      vertex -0.067297 0.5 3.00151
      vertex 0.067297 -5.3033 3.00151
      vertex 0.067297 0.5 3.00151
    endloop
  endfacet
  facet normal 0 0 1
    outer loop
      vertex 0.067297 -5.3033 3.00151
      vertex -0.067297 0.5 3.00151
      vertex -0.067297 -5.3033 3.00151
    endloop
  endfacet
  facet normal 0.35142 0 0.936218
    outer loop
      vertex -0.589537 0.5 3.12071
      vertex -0.463525 -5.3033 3.07341
      vertex -0.463525 0.5 3.07341
    endloop
  endfacet
  facet normal 0.35142 0 0.936218
    outer loop
      vertex -0.463525 -5.3033 3.07341
      vertex -0.589537 0.5 3.12071
      vertex -0.589537 -5.3033 3.12071
    endloop
  endfacet
  facet normal -0.178536 -0 -0.983933
    outer loop
      vertex 0.201349 -0.683124 5.98642
      vertex 0.333781 -5.3033 5.96239
      vertex 0.201349 -5.3033 5.98642
    endloop
  endfacet
  facet normal -0.178536 0 -0.983933
    outer loop
      vertex 0.333781 -5.3033 5.96239
      vertex 0.201349 -0.683124 5.98642
      vertex 0.333781 -0.659091 5.96239
    endloop
  endfacet
  facet normal 0.722755 0 -0.691105
    outer loop
      vertex -1.12961 -5.3033 5.48691
      vertex -1.03659 -0.280891 5.58419
      vertex -1.03659 -5.3033 5.58419
    endloop
  endfacet
  facet normal 0.722755 0 -0.691105
    outer loop
      vertex -1.03659 -0.280891 5.58419
      vertex -1.12961 -5.3033 5.48691
      vertex -1.12961 -0.183607 5.48691
    endloop
  endfacet
  facet normal 0.0896769 0 -0.995971
    outer loop
      vertex -0.201349 -5.3033 5.98642
      vertex -0.067297 -0.695189 5.99849
      vertex -0.067297 -5.3033 5.99849
    endloop
  endfacet
  facet normal 0.0896769 0 -0.995971
    outer loop
      vertex -0.067297 -0.695189 5.99849
      vertex -0.201349 -5.3033 5.98642
      vertex -0.201349 -0.683124 5.98642
    endloop
  endfacet
  facet normal 0.990946 0 -0.134261
    outer loop
      vertex -1.47589 -5.3033 4.76783
      vertex -1.49396 0.5 4.63446
      vertex -1.47589 0.5 4.76783
    endloop
  endfacet
  facet normal 0.990946 0 -0.134261
    outer loop
      vertex -1.49396 0.5 4.63446
      vertex -1.47589 -5.3033 4.76783
      vertex -1.49396 -5.3033 4.63446
    endloop
  endfacet
  facet normal 0.265988 0 0.963976
    outer loop
      vertex -0.463525 0.5 3.07341
      vertex -0.333781 -5.3033 3.03761
      vertex -0.333781 0.5 3.03761
    endloop
  endfacet
  facet normal 0.265988 0 0.963976
    outer loop
      vertex -0.333781 -5.3033 3.03761
      vertex -0.463525 0.5 3.07341
      vertex -0.463525 -5.3033 3.07341
    endloop
  endfacet
  facet normal 0.781861 -0 0.623453
    outer loop
      vertex -1.21352 -5.3033 3.61832
      vertex -1.12961 0.5 3.51309
      vertex -1.21352 0.5 3.61832
    endloop
  endfacet
  facet normal 0.781861 0 0.623453
    outer loop
      vertex -1.12961 0.5 3.51309
      vertex -1.21352 -5.3033 3.61832
      vertex -1.12961 -5.3033 3.51309
    endloop
  endfacet
  facet normal 0.722755 -0 0.691105
    outer loop
      vertex -1.12961 -5.3033 3.51309
      vertex -1.03659 0.5 3.41581
      vertex -1.12961 0.5 3.51309
    endloop
  endfacet
  facet normal 0.722755 0 0.691105
    outer loop
      vertex -1.03659 0.5 3.41581
      vertex -1.12961 -5.3033 3.51309
      vertex -1.03659 -5.3033 3.41581
    endloop
  endfacet
  facet normal 0 -1 0
    outer loop
      vertex -1.49396 0.5 4.63446
      vertex -1.4678 0.5 4.8033
      vertex -1.47589 0.5 4.76783
    endloop
  endfacet
  facet normal 0 -1 -0
    outer loop
      vertex -1.4678 0.5 4.8033
      vertex -1.49396 0.5 4.63446
      vertex 1.4678 0.5 4.8033
    endloop
  endfacet
  facet normal 0 -1 0
    outer loop
      vertex 1.49396 0.5 4.63446
      vertex 1.4678 0.5 4.8033
      vertex -1.49396 0.5 4.63446
    endloop
  endfacet
  facet normal 0 -1 0
    outer loop
      vertex 1.4678 0.5 4.8033
      vertex 1.49396 0.5 4.63446
      vertex 1.47589 0.5 4.76783
    endloop
  endfacet
  facet normal 0 -1 0
    outer loop
      vertex -1.5 0.5 4.5
      vertex 1.49396 0.5 4.63446
      vertex -1.49396 0.5 4.63446
    endloop
  endfacet
  facet normal 0 -1 0
    outer loop
      vertex -1.5 0.5 4.5
      vertex 1.5 0.5 4.5
      vertex 1.49396 0.5 4.63446
    endloop
  endfacet
  facet normal 0 -1 0
    outer loop
      vertex -1.49396 0.5 4.36554
      vertex 1.5 0.5 4.5
      vertex -1.5 0.5 4.5
    endloop
  endfacet
  facet normal 0 -1 0
    outer loop
      vertex -1.49396 0.5 4.36554
      vertex 1.49396 0.5 4.36554
      vertex 1.5 0.5 4.5
    endloop
  endfacet
  facet normal 0 -1 0
    outer loop
      vertex -1.47589 0.5 4.23216
      vertex 1.49396 0.5 4.36554
      vertex -1.49396 0.5 4.36554
    endloop
  endfacet
  facet normal 0 -1 0
    outer loop
      vertex -1.47589 0.5 4.23216
      vertex 1.47589 0.5 4.23216
      vertex 1.49396 0.5 4.36554
    endloop
  endfacet
  facet normal 0 -1 0
    outer loop
      vertex -1.44594 0.5 4.10094
      vertex 1.47589 0.5 4.23216
      vertex -1.47589 0.5 4.23216
    endloop
  endfacet
  facet normal 0 -1 0
    outer loop
      vertex -1.44594 0.5 4.10094
      vertex 1.44594 0.5 4.10094
      vertex 1.47589 0.5 4.23216
    endloop
  endfacet
  facet normal 0 -1 0
    outer loop
      vertex -1.40435 0.5 3.97294
      vertex 1.44594 0.5 4.10094
      vertex -1.44594 0.5 4.10094
    endloop
  endfacet
  facet normal 0 -1 0
    outer loop
      vertex -1.40435 0.5 3.97294
      vertex 1.40435 0.5 3.97294
      vertex 1.44594 0.5 4.10094
    endloop
  endfacet
  facet normal 0 -1 0
    outer loop
      vertex -1.35145 0.5 3.84917
      vertex 1.40435 0.5 3.97294
      vertex -1.40435 0.5 3.97294
    endloop
  endfacet
  facet normal 0 -1 0
    outer loop
      vertex -1.35145 0.5 3.84917
      vertex 1.35145 0.5 3.84917
      vertex 1.40435 0.5 3.97294
    endloop
  endfacet
  facet normal 0 -1 0
    outer loop
      vertex -1.28767 0.5 3.73065
      vertex 1.35145 0.5 3.84917
      vertex -1.35145 0.5 3.84917
    endloop
  endfacet
  facet normal 0 -1 0
    outer loop
      vertex -1.28767 0.5 3.73065
      vertex 1.28767 0.5 3.73065
      vertex 1.35145 0.5 3.84917
    endloop
  endfacet
  facet normal 0 -1 0
    outer loop
      vertex -1.21352 0.5 3.61832
      vertex 1.28767 0.5 3.73065
      vertex -1.28767 0.5 3.73065
    endloop
  endfacet
  facet normal 0 -1 0
    outer loop
      vertex -1.21352 0.5 3.61832
      vertex 1.21352 0.5 3.61832
      vertex 1.28767 0.5 3.73065
    endloop
  endfacet
  facet normal 0 -1 0
    outer loop
      vertex -1.12961 0.5 3.51309
      vertex 1.21352 0.5 3.61832
      vertex -1.21352 0.5 3.61832
    endloop
  endfacet
  facet normal 0 -1 0
    outer loop
      vertex -1.12961 0.5 3.51309
      vertex 1.12961 0.5 3.51309
      vertex 1.21352 0.5 3.61832
    endloop
  endfacet
  facet normal 0 -1 0
    outer loop
      vertex -1.03659 0.5 3.41581
      vertex 1.12961 0.5 3.51309
      vertex -1.12961 0.5 3.51309
    endloop
  endfacet
  facet normal 0 -1 0
    outer loop
      vertex -1.03659 0.5 3.41581
      vertex 1.03659 0.5 3.41581
      vertex 1.12961 0.5 3.51309
    endloop
  endfacet
  facet normal 0 -1 0
    outer loop
      vertex -0.935234 0.5 3.32725
      vertex 1.03659 0.5 3.41581
      vertex -1.03659 0.5 3.41581
    endloop
  endfacet
  facet normal 0 -1 0
    outer loop
      vertex -0.935234 0.5 3.32725
      vertex 0.935234 0.5 3.32725
      vertex 1.03659 0.5 3.41581
    endloop
  endfacet
  facet normal 0 -1 0
    outer loop
      vertex -0.826345 0.5 3.24814
      vertex 0.935234 0.5 3.32725
      vertex -0.935234 0.5 3.32725
    endloop
  endfacet
  facet normal 0 -1 0
    outer loop
      vertex -0.826345 0.5 3.24814
      vertex 0.826345 0.5 3.24814
      vertex 0.935234 0.5 3.32725
    endloop
  endfacet
  facet normal 0 -1 0
    outer loop
      vertex -0.710802 0.5 3.17911
      vertex 0.826345 0.5 3.24814
      vertex -0.826345 0.5 3.24814
    endloop
  endfacet
  facet normal 0 -1 0
    outer loop
      vertex -0.710802 0.5 3.17911
      vertex 0.710802 0.5 3.17911
      vertex 0.826345 0.5 3.24814
    endloop
  endfacet
  facet normal 0 -1 0
    outer loop
      vertex -0.589537 0.5 3.12071
      vertex 0.710802 0.5 3.17911
      vertex -0.710802 0.5 3.17911
    endloop
  endfacet
  facet normal 0 -1 0
    outer loop
      vertex -0.589537 0.5 3.12071
      vertex 0.589537 0.5 3.12071
      vertex 0.710802 0.5 3.17911
    endloop
  endfacet
  facet normal 0 -1 0
    outer loop
      vertex -0.463525 0.5 3.07341
      vertex 0.589537 0.5 3.12071
      vertex -0.589537 0.5 3.12071
    endloop
  endfacet
  facet normal 0 -1 0
    outer loop
      vertex -0.463525 0.5 3.07341
      vertex 0.463525 0.5 3.07341
      vertex 0.589537 0.5 3.12071
    endloop
  endfacet
  facet normal 0 -1 0
    outer loop
      vertex -0.333781 0.5 3.03761
      vertex 0.463525 0.5 3.07341
      vertex -0.463525 0.5 3.07341
    endloop
  endfacet
  facet normal 0 -1 0
    outer loop
      vertex -0.333781 0.5 3.03761
      vertex 0.333781 0.5 3.03761
      vertex 0.463525 0.5 3.07341
    endloop
  endfacet
  facet normal 0 -1 0
    outer loop
      vertex -0.201349 0.5 3.01357
      vertex 0.333781 0.5 3.03761
      vertex -0.333781 0.5 3.03761
    endloop
  endfacet
  facet normal 0 -1 0
    outer loop
      vertex -0.201349 0.5 3.01357
      vertex 0.201349 0.5 3.01357
      vertex 0.333781 0.5 3.03761
    endloop
  endfacet
  facet normal 0 -1 0
    outer loop
      vertex -0.067297 0.5 3.00151
      vertex 0.201349 0.5 3.01357
      vertex -0.201349 0.5 3.01357
    endloop
  endfacet
  facet normal 0 -1 0
    outer loop
      vertex 0.201349 0.5 3.01357
      vertex -0.067297 0.5 3.00151
      vertex 0.067297 0.5 3.00151
    endloop
  endfacet
  facet normal 0.974928 -0 0.22252
    outer loop
      vertex -1.47589 -5.3033 4.23216
      vertex -1.44594 0.5 4.10094
      vertex -1.47589 0.5 4.23216
    endloop
  endfacet
  facet normal 0.974928 0 0.22252
    outer loop
      vertex -1.44594 0.5 4.10094
      vertex -1.47589 -5.3033 4.23216
      vertex -1.44594 -5.3033 4.10094
    endloop
  endfacet
  facet normal -0.433895 0 0.900963
    outer loop
      vertex 0.589537 0.5 3.12071
      vertex 0.710802 -5.3033 3.17911
      vertex 0.710802 0.5 3.17911
    endloop
  endfacet
  facet normal -0.433895 0 0.900963
    outer loop
      vertex 0.710802 -5.3033 3.17911
      vertex 0.589537 0.5 3.12071
      vertex 0.589537 -5.3033 3.12071
    endloop
  endfacet
  facet normal -0.990947 0 0.134251
    outer loop
      vertex 1.47589 -5.3033 4.23216
      vertex 1.49396 0.5 4.36554
      vertex 1.47589 0.5 4.23216
    endloop
  endfacet
  facet normal -0.990947 0 0.134251
    outer loop
      vertex 1.49396 0.5 4.36554
      vertex 1.47589 -5.3033 4.23216
      vertex 1.49396 -5.3033 4.36554
    endloop
  endfacet
  facet normal -0.88059 0 0.473878
    outer loop
      vertex 1.28767 -5.3033 3.73065
      vertex 1.35145 0.5 3.84917
      vertex 1.28767 0.5 3.73065
    endloop
  endfacet
  facet normal -0.88059 0 0.473878
    outer loop
      vertex 1.35145 0.5 3.84917
      vertex 1.28767 -5.3033 3.73065
      vertex 1.35145 -5.3033 3.84917
    endloop
  endfacet
  facet normal -0.587773 0 0.809026
    outer loop
      vertex 0.826345 0.5 3.24814
      vertex 0.935234 -5.3033 3.32725
      vertex 0.935234 0.5 3.32725
    endloop
  endfacet
  facet normal -0.587773 0 0.809026
    outer loop
      vertex 0.935234 -5.3033 3.32725
      vertex 0.826345 0.5 3.24814
      vertex 0.826345 -5.3033 3.24814
    endloop
  endfacet
  facet normal -0.781861 0 -0.623453
    outer loop
      vertex 1.21352 -5.3033 5.38168
      vertex 1.12961 -0.183607 5.48691
      vertex 1.21352 -0.0783768 5.38168
    endloop
  endfacet
  facet normal -0.781861 -0 -0.623453
    outer loop
      vertex 1.12961 -0.183607 5.48691
      vertex 1.21352 -5.3033 5.38168
      vertex 1.12961 -5.3033 5.48691
    endloop
  endfacet
  facet normal 0.433895 0 0.900963
    outer loop
      vertex -0.710802 0.5 3.17911
      vertex -0.589537 -5.3033 3.12071
      vertex -0.589537 0.5 3.12071
    endloop
  endfacet
  facet normal 0.433895 0 0.900963
    outer loop
      vertex -0.589537 -5.3033 3.12071
      vertex -0.710802 0.5 3.17911
      vertex -0.710802 -5.3033 3.17911
    endloop
  endfacet
  facet normal 0.834568 -0 0.550905
    outer loop
      vertex -1.28767 -5.3033 3.73065
      vertex -1.21352 0.5 3.61832
      vertex -1.28767 0.5 3.73065
    endloop
  endfacet
  facet normal 0.834568 0 0.550905
    outer loop
      vertex -1.21352 0.5 3.61832
      vertex -1.28767 -5.3033 3.73065
      vertex -1.21352 -5.3033 3.61832
    endloop
  endfacet
  facet normal -0.266057 -0 -0.963957
    outer loop
      vertex 0.333781 -0.659091 5.96239
      vertex 0.463525 -5.3033 5.92658
      vertex 0.333781 -5.3033 5.96239
    endloop
  endfacet
  facet normal -0.266057 0 -0.963957
    outer loop
      vertex 0.463525 -5.3033 5.92658
      vertex 0.333781 -0.659091 5.96239
      vertex 0.463525 -0.623283 5.92658
    endloop
  endfacet
  facet normal 0.0896032 0 0.995978
    outer loop
      vertex -0.201349 0.5 3.01357
      vertex -0.067297 -5.3033 3.00151
      vertex -0.067297 0.5 3.00151
    endloop
  endfacet
  facet normal 0.0896032 0 0.995978
    outer loop
      vertex -0.067297 -5.3033 3.00151
      vertex -0.201349 0.5 3.01357
      vertex -0.201349 -5.3033 3.01357
    endloop
  endfacet
  facet normal 0.951063 0 -0.308997
    outer loop
      vertex -1.44594 -5.3033 4.89905
      vertex -1.40435 0.276239 5.02706
      vertex -1.40435 -5.3033 5.02706
    endloop
  endfacet
  facet normal 0.951063 0 -0.308997
    outer loop
      vertex -1.40435 0.276239 5.02706
      vertex -1.44594 -5.3033 4.89905
      vertex -1.44594 0.404246 4.89905
    endloop
  endfacet
  facet normal -0.35142 0 0.936218
    outer loop
      vertex 0.463525 0.5 3.07341
      vertex 0.589537 -5.3033 3.12071
      vertex 0.589537 0.5 3.12071
    endloop
  endfacet
  facet normal -0.35142 0 0.936218
    outer loop
      vertex 0.589537 -5.3033 3.12071
      vertex 0.463525 0.5 3.07341
      vertex 0.463525 -5.3033 3.07341
    endloop
  endfacet
  facet normal -0.265988 0 0.963976
    outer loop
      vertex 0.333781 0.5 3.03761
      vertex 0.463525 -5.3033 3.07341
      vertex 0.463525 0.5 3.07341
    endloop
  endfacet
  facet normal -0.265988 0 0.963976
    outer loop
      vertex 0.463525 -5.3033 3.07341
      vertex 0.333781 0.5 3.03761
      vertex 0.333781 -5.3033 3.03761
    endloop
  endfacet
  facet normal 0.998993 -0 0.0448752
    outer loop
      vertex -1.5 -5.3033 4.5
      vertex -1.49396 0.5 4.36554
      vertex -1.5 0.5 4.5
    endloop
  endfacet
  facet normal 0.998993 0 0.0448752
    outer loop
      vertex -1.49396 0.5 4.36554
      vertex -1.5 -5.3033 4.5
      vertex -1.49396 -5.3033 4.36554
    endloop
  endfacet
  facet normal -0.722755 0 0.691105
    outer loop
      vertex 1.03659 -5.3033 3.41581
      vertex 1.12961 0.5 3.51309
      vertex 1.03659 0.5 3.41581
    endloop
  endfacet
  facet normal -0.722755 0 0.691105
    outer loop
      vertex 1.12961 0.5 3.51309
      vertex 1.03659 -5.3033 3.41581
      vertex 1.12961 -5.3033 3.51309
    endloop
  endfacet
  facet normal 0.834568 0 -0.550905
    outer loop
      vertex -1.28767 -5.3033 5.26935
      vertex -1.21352 -0.0783768 5.38168
      vertex -1.21352 -5.3033 5.38168
    endloop
  endfacet
  facet normal 0.834568 0 -0.550905
    outer loop
      vertex -1.21352 -0.0783768 5.38168
      vertex -1.28767 -5.3033 5.26935
      vertex -1.28767 0.0339527 5.26935
    endloop
  endfacet
  facet normal 0.781861 0 -0.623453
    outer loop
      vertex -1.21352 -5.3033 5.38168
      vertex -1.12961 -0.183607 5.48691
      vertex -1.12961 -5.3033 5.48691
    endloop
  endfacet
  facet normal 0.781861 0 -0.623453
    outer loop
      vertex -1.12961 -0.183607 5.48691
      vertex -1.21352 -5.3033 5.38168
      vertex -1.21352 -0.0783768 5.38168
    endloop
  endfacet
  facet normal 0.351355 0 -0.936242
    outer loop
      vertex -0.589537 -5.3033 5.87929
      vertex -0.463525 -0.623283 5.92658
      vertex -0.463525 -5.3033 5.92658
    endloop
  endfacet
  facet normal 0.351355 0 -0.936242
    outer loop
      vertex -0.463525 -0.623283 5.92658
      vertex -0.589537 -5.3033 5.87929
      vertex -0.589537 -0.575991 5.87929
    endloop
  endfacet
  facet normal -0.998993 0.0448675 0
    outer loop
      vertex 2.68913 -0.242025 0
      vertex 2.7 0 3
      vertex 2.7 0 0
    endloop
  endfacet
  facet normal -0.998993 0.0448675 0
    outer loop
      vertex 2.7 0 3
      vertex 2.68913 -0.242025 0
      vertex 2.68913 -0.242025 3
    endloop
  endfacet
  facet normal 0 -1 0
    outer loop
      vertex -0.121135 2.69728 0
      vertex 0.121135 2.69728 2.60602
      vertex -0.121135 2.69728 2.60602
    endloop
  endfacet
  facet normal 0 -1 -0
    outer loop
      vertex 0.121135 2.69728 2.60602
      vertex -0.121135 2.69728 0
      vertex 0.121135 2.69728 0
    endloop
  endfacet
  facet normal -0.266064 0.963955 0
    outer loop
      vertex 0.834346 -2.56785 0
      vertex 0.600806 -2.63231 3
      vertex 0.834346 -2.56785 3
    endloop
  endfacet
  facet normal -0.266064 0.963955 0
    outer loop
      vertex 0.600806 -2.63231 3
      vertex 0.834346 -2.56785 0
      vertex 0.600806 -2.63231 0
    endloop
  endfacet
  facet normal -0.0896518 0.995973 0
    outer loop
      vertex 0.36243 -2.67556 0
      vertex 0.121135 -2.69728 3
      vertex 0.36243 -2.67556 3
    endloop
  endfacet
  facet normal -0.0896518 0.995973 0
    outer loop
      vertex 0.121135 -2.69728 3
      vertex 0.36243 -2.67556 0
      vertex 0.121135 -2.69728 0
    endloop
  endfacet
  facet normal 0.433873 -0.900974 0
    outer loop
      vertex -1.27944 2.37761 0
      vertex -1.06117 2.48272 2.82058
      vertex -1.27944 2.37761 2.92569
    endloop
  endfacet
  facet normal 0.433873 -0.900974 0
    outer loop
      vertex -1.06117 2.48272 2.82058
      vertex -1.27944 2.37761 0
      vertex -1.06117 2.48272 0
    endloop
  endfacet
  facet normal 0.657911 0.753096 -0
    outer loop
      vertex -1.68342 -2.11094 0
      vertex -1.86587 -1.95155 3
      vertex -1.68342 -2.11094 3
    endloop
  endfacet
  facet normal 0.657911 0.753096 0
    outer loop
      vertex -1.86587 -1.95155 3
      vertex -1.68342 -2.11094 0
      vertex -1.86587 -1.95155 0
    endloop
  endfacet
  facet normal -0.587806 -0.809002 0
    outer loop
      vertex 1.48742 2.25335 0
      vertex 1.68342 2.11094 3
      vertex 1.48742 2.25335 3
    endloop
  endfacet
  facet normal -0.587806 -0.809002 -0
    outer loop
      vertex 1.68342 2.11094 3
      vertex 1.48742 2.25335 0
      vertex 1.68342 2.11094 0
    endloop
  endfacet
  facet normal 0.512892 0.858453 -0
    outer loop
      vertex -1.27944 -2.37761 0
      vertex -1.48742 -2.25335 3
      vertex -1.27944 -2.37761 3
    endloop
  endfacet
  facet normal 0.512892 0.858453 0
    outer loop
      vertex -1.48742 -2.25335 3
      vertex -1.27944 -2.37761 0
      vertex -1.48742 -2.25335 0
    endloop
  endfacet
  facet normal 0.974928 -0.22252 0
    outer loop
      vertex -2.65661 0.482103 3
      vertex -2.6027 0.718299 0
      vertex -2.6027 0.718299 3
    endloop
  endfacet
  facet normal 0.974928 -0.22252 0
    outer loop
      vertex -2.6027 0.718299 0
      vertex -2.65661 0.482103 3
      vertex -2.65661 0.482103 0
    endloop
  endfacet
  facet normal -0.99095 -0.13423 0
    outer loop
      vertex 2.68913 0.242025 0
      vertex 2.65661 0.482103 3
      vertex 2.65661 0.482103 0
    endloop
  endfacet
  facet normal -0.99095 -0.13423 0
    outer loop
      vertex 2.65661 0.482103 3
      vertex 2.68913 0.242025 0
      vertex 2.68913 0.242025 3
    endloop
  endfacet
  facet normal -0.512892 0.858453 0
    outer loop
      vertex 1.48742 -2.25335 0
      vertex 1.27944 -2.37761 3
      vertex 1.48742 -2.25335 3
    endloop
  endfacet
  facet normal -0.512892 0.858453 0
    outer loop
      vertex 1.27944 -2.37761 3
      vertex 1.48742 -2.25335 0
      vertex 1.27944 -2.37761 0
    endloop
  endfacet
  facet normal 0.0896518 -0.995973 0
    outer loop
      vertex -0.36243 2.67556 0
      vertex -0.121135 2.69728 2.60602
      vertex -0.36243 2.67556 2.62774
    endloop
  endfacet
  facet normal 0.0896518 -0.995973 0
    outer loop
      vertex -0.121135 2.69728 2.60602
      vertex -0.36243 2.67556 0
      vertex -0.121135 2.69728 0
    endloop
  endfacet
  facet normal -0.974928 -0.22252 0
    outer loop
      vertex 2.65661 0.482103 0
      vertex 2.6027 0.718299 3
      vertex 2.6027 0.718299 0
    endloop
  endfacet
  facet normal -0.974928 -0.22252 0
    outer loop
      vertex 2.6027 0.718299 3
      vertex 2.65661 0.482103 0
      vertex 2.65661 0.482103 3
    endloop
  endfacet
  facet normal 0.834582 0.550884 0
    outer loop
      vertex -2.18435 -1.58702 3
      vertex -2.31781 -1.38483 0
      vertex -2.31781 -1.38483 3
    endloop
  endfacet
  facet normal 0.834582 0.550884 0
    outer loop
      vertex -2.31781 -1.38483 0
      vertex -2.18435 -1.58702 3
      vertex -2.18435 -1.58702 0
    endloop
  endfacet
  facet normal 0.35138 0.936233 -0
    outer loop
      vertex -0.834346 -2.56785 0
      vertex -1.06117 -2.48272 3
      vertex -0.834346 -2.56785 3
    endloop
  endfacet
  facet normal 0.35138 0.936233 0
    outer loop
      vertex -1.06117 -2.48272 3
      vertex -0.834346 -2.56785 0
      vertex -1.06117 -2.48272 0
    endloop
  endfacet
  facet normal 0 1 -0
    outer loop
      vertex 0.121135 -2.69728 0
      vertex -0.121135 -2.69728 3
      vertex 0.121135 -2.69728 3
    endloop
  endfacet
  facet normal 0 1 0
    outer loop
      vertex -0.121135 -2.69728 3
      vertex 0.121135 -2.69728 0
      vertex -0.121135 -2.69728 0
    endloop
  endfacet
  facet normal -0.998993 -0.0448675 0
    outer loop
      vertex 2.7 0 0
      vertex 2.68913 0.242025 3
      vertex 2.68913 0.242025 0
    endloop
  endfacet
  facet normal -0.998993 -0.0448675 0
    outer loop
      vertex 2.68913 0.242025 3
      vertex 2.7 0 0
      vertex 2.7 0 3
    endloop
  endfacet
  facet normal -0.78181 -0.623516 0
    outer loop
      vertex 2.18435 1.58702 0
      vertex 2.03329 1.77643 3
      vertex 2.03329 1.77643 0
    endloop
  endfacet
  facet normal -0.78181 -0.623516 0
    outer loop
      vertex 2.03329 1.77643 3
      vertex 2.18435 1.58702 0
      vertex 2.18435 1.58702 3
    endloop
  endfacet
  facet normal -0.35138 -0.936233 0
    outer loop
      vertex 1.06117 2.48272 0
      vertex 0.834346 2.56785 2.73545
      vertex 0.834346 2.56785 0
    endloop
  endfacet
  facet normal -0.35138 -0.936233 0
    outer loop
      vertex 0.834346 2.56785 2.73545
      vertex 1.06117 2.48272 0
      vertex 1.06117 2.48272 2.82058
    endloop
  endfacet
  facet normal 0.919543 -0.392989 0
    outer loop
      vertex -2.52783 0.948711 3
      vertex -2.43262 1.17149 0
      vertex -2.43262 1.17149 3
    endloop
  endfacet
  facet normal 0.919543 -0.392989 0
    outer loop
      vertex -2.43262 1.17149 0
      vertex -2.52783 0.948711 3
      vertex -2.52783 0.948711 0
    endloop
  endfacet
  facet normal -0.512864 -0.85847 -0.000107442
    outer loop
      vertex 1.27944 2.37761 2.92569
      vertex 1.48742 2.25335 3
      vertex 1.40381 2.3033 3
    endloop
  endfacet
  facet normal -0.512892 -0.858453 0
    outer loop
      vertex 1.48742 2.25335 0
      vertex 1.27944 2.37761 2.92569
      vertex 1.27944 2.37761 0
    endloop
  endfacet
  facet normal -0.512892 -0.858453 0
    outer loop
      vertex 1.27944 2.37761 2.92569
      vertex 1.48742 2.25335 0
      vertex 1.48742 2.25335 3
    endloop
  endfacet
  facet normal -0.951051 -0.309034 0
    outer loop
      vertex 2.6027 0.718299 0
      vertex 2.52783 0.948711 3
      vertex 2.52783 0.948711 0
    endloop
  endfacet
  facet normal -0.951051 -0.309034 0
    outer loop
      vertex 2.52783 0.948711 3
      vertex 2.6027 0.718299 0
      vertex 2.6027 0.718299 3
    endloop
  endfacet
  facet normal 0.880584 -0.473891 0
    outer loop
      vertex -2.43262 1.17149 3
      vertex -2.31781 1.38483 0
      vertex -2.31781 1.38483 3
    endloop
  endfacet
  facet normal 0.880584 -0.473891 0
    outer loop
      vertex -2.31781 1.38483 0
      vertex -2.43262 1.17149 3
      vertex -2.43262 1.17149 0
    endloop
  endfacet
  facet normal 0.178521 -0.983936 0
    outer loop
      vertex -0.600806 2.63231 0
      vertex -0.36243 2.67556 2.62774
      vertex -0.600806 2.63231 2.671
    endloop
  endfacet
  facet normal 0.178521 -0.983936 0
    outer loop
      vertex -0.36243 2.67556 2.62774
      vertex -0.600806 2.63231 0
      vertex -0.36243 2.67556 0
    endloop
  endfacet
  facet normal 0.951051 0.309034 0
    outer loop
      vertex -2.52783 -0.948711 3
      vertex -2.6027 -0.718299 0
      vertex -2.6027 -0.718299 3
    endloop
  endfacet
  facet normal 0.951051 0.309034 0
    outer loop
      vertex -2.6027 -0.718299 0
      vertex -2.52783 -0.948711 3
      vertex -2.52783 -0.948711 0
    endloop
  endfacet
  facet normal -0.722819 0.691037 0
    outer loop
      vertex 1.86587 -1.95155 0
      vertex 2.03329 -1.77643 3
      vertex 2.03329 -1.77643 0
    endloop
  endfacet
  facet normal -0.722819 0.691037 0
    outer loop
      vertex 2.03329 -1.77643 3
      vertex 1.86587 -1.95155 0
      vertex 1.86587 -1.95155 3
    endloop
  endfacet
  facet normal 0.99095 -0.13423 0
    outer loop
      vertex -2.68913 0.242025 3
      vertex -2.65661 0.482103 0
      vertex -2.65661 0.482103 3
    endloop
  endfacet
  facet normal 0.99095 -0.13423 0
    outer loop
      vertex -2.65661 0.482103 0
      vertex -2.68913 0.242025 3
      vertex -2.68913 0.242025 0
    endloop
  endfacet
  facet normal -0.657911 0.753096 0
    outer loop
      vertex 1.86587 -1.95155 0
      vertex 1.68342 -2.11094 3
      vertex 1.86587 -1.95155 3
    endloop
  endfacet
  facet normal -0.657911 0.753096 0
    outer loop
      vertex 1.68342 -2.11094 3
      vertex 1.86587 -1.95155 0
      vertex 1.68342 -2.11094 0
    endloop
  endfacet
  facet normal 0.99095 0.13423 0
    outer loop
      vertex -2.65661 -0.482103 3
      vertex -2.68913 -0.242025 0
      vertex -2.68913 -0.242025 3
    endloop
  endfacet
  facet normal 0.99095 0.13423 0
    outer loop
      vertex -2.68913 -0.242025 0
      vertex -2.65661 -0.482103 3
      vertex -2.65661 -0.482103 0
    endloop
  endfacet
  facet normal -0.951051 0.309034 0
    outer loop
      vertex 2.52783 -0.948711 0
      vertex 2.6027 -0.718299 3
      vertex 2.6027 -0.718299 0
    endloop
  endfacet
  facet normal -0.951051 0.309034 0
    outer loop
      vertex 2.6027 -0.718299 3
      vertex 2.52783 -0.948711 0
      vertex 2.52783 -0.948711 3
    endloop
  endfacet
  facet normal -0.587806 0.809002 0
    outer loop
      vertex 1.68342 -2.11094 0
      vertex 1.48742 -2.25335 3
      vertex 1.68342 -2.11094 3
    endloop
  endfacet
  facet normal -0.587806 0.809002 0
    outer loop
      vertex 1.48742 -2.25335 3
      vertex 1.68342 -2.11094 0
      vertex 1.48742 -2.25335 0
    endloop
  endfacet
  facet normal 0.266064 -0.963955 0
    outer loop
      vertex -0.834346 2.56785 0
      vertex -0.600806 2.63231 2.671
      vertex -0.834346 2.56785 2.73545
    endloop
  endfacet
  facet normal 0.266064 -0.963955 0
    outer loop
      vertex -0.600806 2.63231 2.671
      vertex -0.834346 2.56785 0
      vertex -0.600806 2.63231 0
    endloop
  endfacet
  facet normal 0.35138 -0.936233 0
    outer loop
      vertex -1.06117 2.48272 0
      vertex -0.834346 2.56785 2.73545
      vertex -1.06117 2.48272 2.82058
    endloop
  endfacet
  facet normal 0.35138 -0.936233 0
    outer loop
      vertex -0.834346 2.56785 2.73545
      vertex -1.06117 2.48272 0
      vertex -0.834346 2.56785 0
    endloop
  endfacet
  facet normal 0.974928 0.22252 0
    outer loop
      vertex -2.6027 -0.718299 3
      vertex -2.65661 -0.482103 0
      vertex -2.65661 -0.482103 3
    endloop
  endfacet
  facet normal 0.974928 0.22252 0
    outer loop
      vertex -2.65661 -0.482103 0
      vertex -2.6027 -0.718299 3
      vertex -2.6027 -0.718299 0
    endloop
  endfacet
  facet normal -0.880584 0.473891 0
    outer loop
      vertex 2.31781 -1.38483 0
      vertex 2.43262 -1.17149 3
      vertex 2.43262 -1.17149 0
    endloop
  endfacet
  facet normal -0.880584 0.473891 0
    outer loop
      vertex 2.43262 -1.17149 3
      vertex 2.31781 -1.38483 0
      vertex 2.31781 -1.38483 3
    endloop
  endfacet
  facet normal 0.178521 0.983936 -0
    outer loop
      vertex -0.36243 -2.67556 0
      vertex -0.600806 -2.63231 3
      vertex -0.36243 -2.67556 3
    endloop
  endfacet
  facet normal 0.178521 0.983936 0
    outer loop
      vertex -0.600806 -2.63231 3
      vertex -0.36243 -2.67556 0
      vertex -0.600806 -2.63231 0
    endloop
  endfacet
  facet normal -0.722819 -0.691037 0
    outer loop
      vertex 2.03329 1.77643 0
      vertex 1.86587 1.95155 3
      vertex 1.86587 1.95155 0
    endloop
  endfacet
  facet normal -0.722819 -0.691037 0
    outer loop
      vertex 1.86587 1.95155 3
      vertex 2.03329 1.77643 0
      vertex 2.03329 1.77643 3
    endloop
  endfacet
  facet normal 0.951051 -0.309034 0
    outer loop
      vertex -2.6027 0.718299 3
      vertex -2.52783 0.948711 0
      vertex -2.52783 0.948711 3
    endloop
  endfacet
  facet normal 0.951051 -0.309034 0
    outer loop
      vertex -2.52783 0.948711 0
      vertex -2.6027 0.718299 3
      vertex -2.6027 0.718299 0
    endloop
  endfacet
  facet normal 0.834582 -0.550884 0
    outer loop
      vertex -2.31781 1.38483 3
      vertex -2.18435 1.58702 0
      vertex -2.18435 1.58702 3
    endloop
  endfacet
  facet normal 0.834582 -0.550884 0
    outer loop
      vertex -2.18435 1.58702 0
      vertex -2.31781 1.38483 3
      vertex -2.31781 1.38483 0
    endloop
  endfacet
  facet normal -0.35138 0.936233 0
    outer loop
      vertex 1.06117 -2.48272 0
      vertex 0.834346 -2.56785 3
      vertex 1.06117 -2.48272 3
    endloop
  endfacet
  facet normal -0.35138 0.936233 0
    outer loop
      vertex 0.834346 -2.56785 3
      vertex 1.06117 -2.48272 0
      vertex 0.834346 -2.56785 0
    endloop
  endfacet
  facet normal -0.919543 -0.392989 0
    outer loop
      vertex 2.52783 0.948711 0
      vertex 2.43262 1.17149 3
      vertex 2.43262 1.17149 0
    endloop
  endfacet
  facet normal -0.919543 -0.392989 0
    outer loop
      vertex 2.43262 1.17149 3
      vertex 2.52783 0.948711 0
      vertex 2.52783 0.948711 3
    endloop
  endfacet
  facet normal 0.657911 -0.753096 0
    outer loop
      vertex -1.86587 1.95155 0
      vertex -1.68342 2.11094 3
      vertex -1.86587 1.95155 3
    endloop
  endfacet
  facet normal 0.657911 -0.753096 0
    outer loop
      vertex -1.68342 2.11094 3
      vertex -1.86587 1.95155 0
      vertex -1.68342 2.11094 0
    endloop
  endfacet
  facet normal -0.880584 -0.473891 0
    outer loop
      vertex 2.43262 1.17149 0
      vertex 2.31781 1.38483 3
      vertex 2.31781 1.38483 0
    endloop
  endfacet
  facet normal -0.880584 -0.473891 0
    outer loop
      vertex 2.31781 1.38483 3
      vertex 2.43262 1.17149 0
      vertex 2.43262 1.17149 3
    endloop
  endfacet
  facet normal 0.722819 -0.691037 0
    outer loop
      vertex -2.03329 1.77643 3
      vertex -1.86587 1.95155 0
      vertex -1.86587 1.95155 3
    endloop
  endfacet
  facet normal 0.722819 -0.691037 0
    outer loop
      vertex -1.86587 1.95155 0
      vertex -2.03329 1.77643 3
      vertex -2.03329 1.77643 0
    endloop
  endfacet
  facet normal -0.433873 -0.900974 0
    outer loop
      vertex 1.27944 2.37761 0
      vertex 1.06117 2.48272 2.82058
      vertex 1.06117 2.48272 0
    endloop
  endfacet
  facet normal -0.433873 -0.900974 0
    outer loop
      vertex 1.06117 2.48272 2.82058
      vertex 1.27944 2.37761 0
      vertex 1.27944 2.37761 2.92569
    endloop
  endfacet
  facet normal 0.512864 -0.85847 -0.000107442
    outer loop
      vertex -1.48742 2.25335 3
      vertex -1.27944 2.37761 2.92569
      vertex -1.40381 2.3033 3
    endloop
  endfacet
  facet normal 0.512892 -0.858453 0
    outer loop
      vertex -1.48742 2.25335 0
      vertex -1.27944 2.37761 2.92569
      vertex -1.48742 2.25335 3
    endloop
  endfacet
  facet normal 0.512892 -0.858453 0
    outer loop
      vertex -1.27944 2.37761 2.92569
      vertex -1.48742 2.25335 0
      vertex -1.27944 2.37761 0
    endloop
  endfacet
  facet normal -0.266064 -0.963955 0
    outer loop
      vertex 0.834346 2.56785 0
      vertex 0.600806 2.63231 2.671
      vertex 0.600806 2.63231 0
    endloop
  endfacet
  facet normal -0.266064 -0.963955 0
    outer loop
      vertex 0.600806 2.63231 2.671
      vertex 0.834346 2.56785 0
      vertex 0.834346 2.56785 2.73545
    endloop
  endfacet
  facet normal -0.99095 0.13423 0
    outer loop
      vertex 2.65661 -0.482103 0
      vertex 2.68913 -0.242025 3
      vertex 2.68913 -0.242025 0
    endloop
  endfacet
  facet normal -0.99095 0.13423 0
    outer loop
      vertex 2.68913 -0.242025 3
      vertex 2.65661 -0.482103 0
      vertex 2.65661 -0.482103 3
    endloop
  endfacet
  facet normal 0.78181 0.623516 0
    outer loop
      vertex -2.03329 -1.77643 3
      vertex -2.18435 -1.58702 0
      vertex -2.18435 -1.58702 3
    endloop
  endfacet
  facet normal 0.78181 0.623516 0
    outer loop
      vertex -2.18435 -1.58702 0
      vertex -2.03329 -1.77643 3
      vertex -2.03329 -1.77643 0
    endloop
  endfacet
  facet normal -0.78181 0.623516 0
    outer loop
      vertex 2.03329 -1.77643 0
      vertex 2.18435 -1.58702 3
      vertex 2.18435 -1.58702 0
    endloop
  endfacet
  facet normal -0.78181 0.623516 0
    outer loop
      vertex 2.18435 -1.58702 3
      vertex 2.03329 -1.77643 0
      vertex 2.03329 -1.77643 3
    endloop
  endfacet
  facet normal 0.587806 -0.809002 0
    outer loop
      vertex -1.68342 2.11094 0
      vertex -1.48742 2.25335 3
      vertex -1.68342 2.11094 3
    endloop
  endfacet
  facet normal 0.587806 -0.809002 0
    outer loop
      vertex -1.48742 2.25335 3
      vertex -1.68342 2.11094 0
      vertex -1.48742 2.25335 0
    endloop
  endfacet
  facet normal -0.974928 0.22252 0
    outer loop
      vertex 2.6027 -0.718299 0
      vertex 2.65661 -0.482103 3
      vertex 2.65661 -0.482103 0
    endloop
  endfacet
  facet normal -0.974928 0.22252 0
    outer loop
      vertex 2.65661 -0.482103 3
      vertex 2.6027 -0.718299 0
      vertex 2.6027 -0.718299 3
    endloop
  endfacet
  facet normal -0.834582 -0.550884 0
    outer loop
      vertex 2.31781 1.38483 0
      vertex 2.18435 1.58702 3
      vertex 2.18435 1.58702 0
    endloop
  endfacet
  facet normal -0.834582 -0.550884 0
    outer loop
      vertex 2.18435 1.58702 3
      vertex 2.31781 1.38483 0
      vertex 2.31781 1.38483 3
    endloop
  endfacet
  facet normal 0.998993 0.0448675 0
    outer loop
      vertex -2.68913 -0.242025 3
      vertex -2.7 0 0
      vertex -2.7 0 3
    endloop
  endfacet
  facet normal 0.998993 0.0448675 0
    outer loop
      vertex -2.7 0 0
      vertex -2.68913 -0.242025 3
      vertex -2.68913 -0.242025 0
    endloop
  endfacet
  facet normal -0.919543 0.392989 0
    outer loop
      vertex 2.43262 -1.17149 0
      vertex 2.52783 -0.948711 3
      vertex 2.52783 -0.948711 0
    endloop
  endfacet
  facet normal -0.919543 0.392989 0
    outer loop
      vertex 2.52783 -0.948711 3
      vertex 2.43262 -1.17149 0
      vertex 2.43262 -1.17149 3
    endloop
  endfacet
  facet normal 0.266064 0.963955 -0
    outer loop
      vertex -0.600806 -2.63231 0
      vertex -0.834346 -2.56785 3
      vertex -0.600806 -2.63231 3
    endloop
  endfacet
  facet normal 0.266064 0.963955 0
    outer loop
      vertex -0.834346 -2.56785 3
      vertex -0.600806 -2.63231 0
      vertex -0.834346 -2.56785 0
    endloop
  endfacet
  facet normal -0.178521 0.983936 0
    outer loop
      vertex 0.600806 -2.63231 0
      vertex 0.36243 -2.67556 3
      vertex 0.600806 -2.63231 3
    endloop
  endfacet
  facet normal -0.178521 0.983936 0
    outer loop
      vertex 0.36243 -2.67556 3
      vertex 0.600806 -2.63231 0
      vertex 0.36243 -2.67556 0
    endloop
  endfacet
  facet normal -0.433873 0.900974 0
    outer loop
      vertex 1.27944 -2.37761 0
      vertex 1.06117 -2.48272 3
      vertex 1.27944 -2.37761 3
    endloop
  endfacet
  facet normal -0.433873 0.900974 0
    outer loop
      vertex 1.06117 -2.48272 3
      vertex 1.27944 -2.37761 0
      vertex 1.06117 -2.48272 0
    endloop
  endfacet
  facet normal -0.657911 -0.753096 0
    outer loop
      vertex 1.68342 2.11094 0
      vertex 1.86587 1.95155 3
      vertex 1.68342 2.11094 3
    endloop
  endfacet
  facet normal -0.657911 -0.753096 -0
    outer loop
      vertex 1.86587 1.95155 3
      vertex 1.68342 2.11094 0
      vertex 1.86587 1.95155 0
    endloop
  endfacet
  facet normal -0.0896518 -0.995973 0
    outer loop
      vertex 0.36243 2.67556 0
      vertex 0.121135 2.69728 2.60602
      vertex 0.121135 2.69728 0
    endloop
  endfacet
  facet normal -0.0896518 -0.995973 0
    outer loop
      vertex 0.121135 2.69728 2.60602
      vertex 0.36243 2.67556 0
      vertex 0.36243 2.67556 2.62774
    endloop
  endfacet
  facet normal 0.998993 -0.0448675 0
    outer loop
      vertex -2.7 0 3
      vertex -2.68913 0.242025 0
      vertex -2.68913 0.242025 3
    endloop
  endfacet
  facet normal 0.998993 -0.0448675 0
    outer loop
      vertex -2.68913 0.242025 0
      vertex -2.7 0 3
      vertex -2.7 0 0
    endloop
  endfacet
  facet normal 0.587806 0.809002 -0
    outer loop
      vertex -1.48742 -2.25335 0
      vertex -1.68342 -2.11094 3
      vertex -1.48742 -2.25335 3
    endloop
  endfacet
  facet normal 0.587806 0.809002 0
    outer loop
      vertex -1.68342 -2.11094 3
      vertex -1.48742 -2.25335 0
      vertex -1.68342 -2.11094 0
    endloop
  endfacet
  facet normal 0.0896518 0.995973 -0
    outer loop
      vertex -0.121135 -2.69728 0
      vertex -0.36243 -2.67556 3
      vertex -0.121135 -2.69728 3
    endloop
  endfacet
  facet normal 0.0896518 0.995973 0
    outer loop
      vertex -0.36243 -2.67556 3
      vertex -0.121135 -2.69728 0
      vertex -0.36243 -2.67556 0
    endloop
  endfacet
  facet normal -0.834582 0.550884 0
    outer loop
      vertex 2.18435 -1.58702 0
      vertex 2.31781 -1.38483 3
      vertex 2.31781 -1.38483 0
    endloop
  endfacet
  facet normal -0.834582 0.550884 0
    outer loop
      vertex 2.31781 -1.38483 3
      vertex 2.18435 -1.58702 0
      vertex 2.18435 -1.58702 3
    endloop
  endfacet
  facet normal 0.433873 0.900974 -0
    outer loop
      vertex -1.06117 -2.48272 0
      vertex -1.27944 -2.37761 3
      vertex -1.06117 -2.48272 3
    endloop
  endfacet
  facet normal 0.433873 0.900974 0
    outer loop
      vertex -1.27944 -2.37761 3
      vertex -1.06117 -2.48272 0
      vertex -1.27944 -2.37761 0
    endloop
  endfacet
  facet normal 0 0 -1
    outer loop
      vertex 2.68913 -0.242025 3
      vertex 2.68913 0.242025 3
      vertex 2.7 0 3
    endloop
  endfacet
  facet normal 0 0 -1
    outer loop
      vertex 2.65661 -0.482103 3
      vertex 2.68913 0.242025 3
      vertex 2.68913 -0.242025 3
    endloop
  endfacet
  facet normal 0 0 -1
    outer loop
      vertex 2.65661 -0.482103 3
      vertex 2.65661 0.482103 3
      vertex 2.68913 0.242025 3
    endloop
  endfacet
  facet normal 0 0 -1
    outer loop
      vertex 2.6027 -0.718299 3
      vertex 2.65661 0.482103 3
      vertex 2.65661 -0.482103 3
    endloop
  endfacet
  facet normal 0 0 -1
    outer loop
      vertex 2.6027 -0.718299 3
      vertex 2.6027 0.718299 3
      vertex 2.65661 0.482103 3
    endloop
  endfacet
  facet normal 0 0 -1
    outer loop
      vertex 2.52783 -0.948711 3
      vertex 2.6027 0.718299 3
      vertex 2.6027 -0.718299 3
    endloop
  endfacet
  facet normal 0 0 -1
    outer loop
      vertex 2.52783 -0.948711 3
      vertex 2.52783 0.948711 3
      vertex 2.6027 0.718299 3
    endloop
  endfacet
  facet normal 0 0 -1
    outer loop
      vertex 2.43262 -1.17149 3
      vertex 2.52783 0.948711 3
      vertex 2.52783 -0.948711 3
    endloop
  endfacet
  facet normal 0 0 -1
    outer loop
      vertex 2.43262 -1.17149 3
      vertex 2.43262 1.17149 3
      vertex 2.52783 0.948711 3
    endloop
  endfacet
  facet normal 0 0 -1
    outer loop
      vertex 2.31781 -1.38483 3
      vertex 2.43262 1.17149 3
      vertex 2.43262 -1.17149 3
    endloop
  endfacet
  facet normal 0 0 -1
    outer loop
      vertex 2.31781 -1.38483 3
      vertex 2.31781 1.38483 3
      vertex 2.43262 1.17149 3
    endloop
  endfacet
  facet normal 0 0 -1
    outer loop
      vertex 2.18435 -1.58702 3
      vertex 2.31781 1.38483 3
      vertex 2.31781 -1.38483 3
    endloop
  endfacet
  facet normal 0 0 -1
    outer loop
      vertex 2.18435 -1.58702 3
      vertex 2.18435 1.58702 3
      vertex 2.31781 1.38483 3
    endloop
  endfacet
  facet normal 0 0 -1
    outer loop
      vertex 2.03329 -1.77643 3
      vertex 2.18435 1.58702 3
      vertex 2.18435 -1.58702 3
    endloop
  endfacet
  facet normal 0 0 -1
    outer loop
      vertex 2.03329 -1.77643 3
      vertex 2.03329 1.77643 3
      vertex 2.18435 1.58702 3
    endloop
  endfacet
  facet normal 0 0 -1
    outer loop
      vertex 1.86587 -1.95155 3
      vertex 2.03329 1.77643 3
      vertex 2.03329 -1.77643 3
    endloop
  endfacet
  facet normal 0 0 -1
    outer loop
      vertex 1.86587 -1.95155 3
      vertex 1.86587 1.95155 3
      vertex 2.03329 1.77643 3
    endloop
  endfacet
  facet normal 0 0 -1
    outer loop
      vertex 1.68342 -2.11094 3
      vertex 1.86587 1.95155 3
      vertex 1.86587 -1.95155 3
    endloop
  endfacet
  facet normal 0 0 -1
    outer loop
      vertex 1.68342 -2.11094 3
      vertex 1.68342 2.11094 3
      vertex 1.86587 1.95155 3
    endloop
  endfacet
  facet normal 0 0 -1
    outer loop
      vertex 1.48742 -2.25335 3
      vertex 1.68342 2.11094 3
      vertex 1.68342 -2.11094 3
    endloop
  endfacet
  facet normal 0 0 -1
    outer loop
      vertex 1.40381 2.3033 3
      vertex 1.68342 2.11094 3
      vertex 1.48742 -2.25335 3
    endloop
  endfacet
  facet normal 0 0 -1
    outer loop
      vertex 1.68342 2.11094 3
      vertex 1.40381 2.3033 3
      vertex 1.48742 2.25335 3
    endloop
  endfacet
  facet normal 0 0 -1
    outer loop
      vertex 1.27944 -2.37761 3
      vertex 1.40381 2.3033 3
      vertex 1.48742 -2.25335 3
    endloop
  endfacet
  facet normal 0 0 -1
    outer loop
      vertex 1.06117 -2.48272 3
      vertex 1.40381 2.3033 3
      vertex 1.27944 -2.37761 3
    endloop
  endfacet
  facet normal 0 0 -1
    outer loop
      vertex 0.834346 -2.56785 3
      vertex 1.40381 2.3033 3
      vertex 1.06117 -2.48272 3
    endloop
  endfacet
  facet normal 0 0 -1
    outer loop
      vertex 0.600806 -2.63231 3
      vertex 1.40381 2.3033 3
      vertex 0.834346 -2.56785 3
    endloop
  endfacet
  facet normal 0 0 -1
    outer loop
      vertex 0.36243 -2.67556 3
      vertex 1.40381 2.3033 3
      vertex 0.600806 -2.63231 3
    endloop
  endfacet
  facet normal 0 0 -1
    outer loop
      vertex 0.121135 -2.69728 3
      vertex 1.40381 2.3033 3
      vertex 0.36243 -2.67556 3
    endloop
  endfacet
  facet normal 0 0 -1
    outer loop
      vertex -0.121135 -2.69728 3
      vertex 1.40381 2.3033 3
      vertex 0.121135 -2.69728 3
    endloop
  endfacet
  facet normal 0 0 -1
    outer loop
      vertex -0.36243 -2.67556 3
      vertex 1.40381 2.3033 3
      vertex -0.121135 -2.69728 3
    endloop
  endfacet
  facet normal 0 0 -1
    outer loop
      vertex -0.600806 -2.63231 3
      vertex 1.40381 2.3033 3
      vertex -0.36243 -2.67556 3
    endloop
  endfacet
  facet normal 0 0 -1
    outer loop
      vertex -0.834346 -2.56785 3
      vertex 1.40381 2.3033 3
      vertex -0.600806 -2.63231 3
    endloop
  endfacet
  facet normal 0 0 -1
    outer loop
      vertex -1.06117 -2.48272 3
      vertex 1.40381 2.3033 3
      vertex -0.834346 -2.56785 3
    endloop
  endfacet
  facet normal 0 0 -1
    outer loop
      vertex -1.27944 -2.37761 3
      vertex 1.40381 2.3033 3
      vertex -1.06117 -2.48272 3
    endloop
  endfacet
  facet normal 0 0 -1
    outer loop
      vertex -1.27944 -2.37761 3
      vertex -1.40381 2.3033 3
      vertex 1.40381 2.3033 3
    endloop
  endfacet
  facet normal 0 0 -1
    outer loop
      vertex -1.48742 -2.25335 3
      vertex -1.40381 2.3033 3
      vertex -1.27944 -2.37761 3
    endloop
  endfacet
  facet normal 0 0 -1
    outer loop
      vertex -1.68342 -2.11094 3
      vertex -1.40381 2.3033 3
      vertex -1.48742 -2.25335 3
    endloop
  endfacet
  facet normal 0 0 -1
    outer loop
      vertex -1.68342 2.11094 3
      vertex -1.40381 2.3033 3
      vertex -1.68342 -2.11094 3
    endloop
  endfacet
  facet normal 0 0 -1
    outer loop
      vertex -1.40381 2.3033 3
      vertex -1.68342 2.11094 3
      vertex -1.48742 2.25335 3
    endloop
  endfacet
  facet normal 0 0 -1
    outer loop
      vertex -1.86587 -1.95155 3
      vertex -1.68342 2.11094 3
      vertex -1.68342 -2.11094 3
    endloop
  endfacet
  facet normal 0 0 -1
    outer loop
      vertex -1.86587 -1.95155 3
      vertex -1.86587 1.95155 3
      vertex -1.68342 2.11094 3
    endloop
  endfacet
  facet normal 0 0 -1
    outer loop
      vertex -2.03329 -1.77643 3
      vertex -1.86587 1.95155 3
      vertex -1.86587 -1.95155 3
    endloop
  endfacet
  facet normal 0 0 -1
    outer loop
      vertex -2.03329 -1.77643 3
      vertex -2.03329 1.77643 3
      vertex -1.86587 1.95155 3
    endloop
  endfacet
  facet normal 0 0 -1
    outer loop
      vertex -2.18435 -1.58702 3
      vertex -2.03329 1.77643 3
      vertex -2.03329 -1.77643 3
    endloop
  endfacet
  facet normal 0 0 -1
    outer loop
      vertex -2.18435 -1.58702 3
      vertex -2.18435 1.58702 3
      vertex -2.03329 1.77643 3
    endloop
  endfacet
  facet normal 0 0 -1
    outer loop
      vertex -2.31781 -1.38483 3
      vertex -2.18435 1.58702 3
      vertex -2.18435 -1.58702 3
    endloop
  endfacet
  facet normal 0 0 -1
    outer loop
      vertex -2.31781 -1.38483 3
      vertex -2.31781 1.38483 3
      vertex -2.18435 1.58702 3
    endloop
  endfacet
  facet normal 0 0 -1
    outer loop
      vertex -2.43262 -1.17149 3
      vertex -2.31781 1.38483 3
      vertex -2.31781 -1.38483 3
    endloop
  endfacet
  facet normal 0 0 -1
    outer loop
      vertex -2.43262 -1.17149 3
      vertex -2.43262 1.17149 3
      vertex -2.31781 1.38483 3
    endloop
  endfacet
  facet normal 0 0 -1
    outer loop
      vertex -2.52783 -0.948711 3
      vertex -2.43262 1.17149 3
      vertex -2.43262 -1.17149 3
    endloop
  endfacet
  facet normal 0 0 -1
    outer loop
      vertex -2.52783 -0.948711 3
      vertex -2.52783 0.948711 3
      vertex -2.43262 1.17149 3
    endloop
  endfacet
  facet normal 0 0 -1
    outer loop
      vertex -2.6027 -0.718299 3
      vertex -2.52783 0.948711 3
      vertex -2.52783 -0.948711 3
    endloop
  endfacet
  facet normal 0 0 -1
    outer loop
      vertex -2.6027 -0.718299 3
      vertex -2.6027 0.718299 3
      vertex -2.52783 0.948711 3
    endloop
  endfacet
  facet normal 0 0 -1
    outer loop
      vertex -2.65661 -0.482103 3
      vertex -2.6027 0.718299 3
      vertex -2.6027 -0.718299 3
    endloop
  endfacet
  facet normal 0 0 -1
    outer loop
      vertex -2.65661 -0.482103 3
      vertex -2.65661 0.482103 3
      vertex -2.6027 0.718299 3
    endloop
  endfacet
  facet normal 0 0 -1
    outer loop
      vertex -2.68913 -0.242025 3
      vertex -2.65661 0.482103 3
      vertex -2.65661 -0.482103 3
    endloop
  endfacet
  facet normal 0 0 -1
    outer loop
      vertex -2.68913 -0.242025 3
      vertex -2.68913 0.242025 3
      vertex -2.65661 0.482103 3
    endloop
  endfacet
  facet normal 0 -0 -1
    outer loop
      vertex -2.68913 0.242025 3
      vertex -2.68913 -0.242025 3
      vertex -2.7 0 3
    endloop
  endfacet
  facet normal 0.722819 0.691037 0
    outer loop
      vertex -1.86587 -1.95155 3
      vertex -2.03329 -1.77643 0
      vertex -2.03329 -1.77643 3
    endloop
  endfacet
  facet normal 0.722819 0.691037 0
    outer loop
      vertex -2.03329 -1.77643 0
      vertex -1.86587 -1.95155 3
      vertex -1.86587 -1.95155 0
    endloop
  endfacet
  facet normal 0.880584 0.473891 0
    outer loop
      vertex -2.31781 -1.38483 3
      vertex -2.43262 -1.17149 0
      vertex -2.43262 -1.17149 3
    endloop
  endfacet
  facet normal 0.880584 0.473891 0
    outer loop
      vertex -2.43262 -1.17149 0
      vertex -2.31781 -1.38483 3
      vertex -2.31781 -1.38483 0
    endloop
  endfacet
  facet normal 0.919543 0.392989 0
    outer loop
      vertex -2.43262 -1.17149 3
      vertex -2.52783 -0.948711 0
      vertex -2.52783 -0.948711 3
    endloop
  endfacet
  facet normal 0.919543 0.392989 0
    outer loop
      vertex -2.52783 -0.948711 0
      vertex -2.43262 -1.17149 3
      vertex -2.43262 -1.17149 0
    endloop
  endfacet
  facet normal -0.178521 -0.983936 0
    outer loop
      vertex 0.600806 2.63231 0
      vertex 0.36243 2.67556 2.62774
      vertex 0.36243 2.67556 0
    endloop
  endfacet
  facet normal -0.178521 -0.983936 0
    outer loop
      vertex 0.36243 2.67556 2.62774
      vertex 0.600806 2.63231 0
      vertex 0.600806 2.63231 2.671
    endloop
  endfacet
  facet normal 0.78181 -0.623516 0
    outer loop
      vertex -2.18435 1.58702 3
      vertex -2.03329 1.77643 0
      vertex -2.03329 1.77643 3
    endloop
  endfacet
  facet normal 0.78181 -0.623516 0
    outer loop
      vertex -2.03329 1.77643 0
      vertex -2.18435 1.58702 3
      vertex -2.18435 1.58702 0
    endloop
  endfacet
endsolid OpenSCAD_Model
